<svg width="50" height="50" viewBox="0 0 50 50" fill="none" xmlns="http://www.w3.org/2000/svg">
<path d="M25 50C38.8071 50 50 38.8071 50 25C50 11.1929 38.8071 0 25 0C11.1929 0 0 11.1929 0 25C0 38.8071 11.1929 50 25 50Z" fill="#333333"/>
<path d="M24.3151 13.6497L30.8592 20.1702L15.7598 39.3516L26.9225 49.9273C39.8312 48.9456 49.9998 38.1604 49.9998 25.0002C49.9998 24.6776 49.9917 24.3569 49.9796 24.0373L31.4003 5.45801L24.3151 13.6497Z" fill="#1A1A1A"/>
<path d="M18.6708 40.9698C17.6681 40.9307 16.1701 39.8374 15.5213 39.1018C13.861 37.2191 12.5084 35.1331 11.5519 32.8086C10.463 30.1627 9.8135 27.4187 9.84641 24.538C9.87004 22.4659 10.2745 20.4785 11.3118 18.6698C12.5944 16.4336 14.4878 14.9629 17.0184 14.3684C18.0253 14.1318 19.0518 14.0369 20.0581 14.3347C21.0643 14.6323 22.0557 14.9837 23.0429 15.3408C23.8983 15.6503 24.7377 15.8742 25.6358 15.4851C26.2258 15.2293 26.8395 15.0279 27.4438 14.8056C28.4335 14.4413 29.4339 14.1036 30.4994 14.0719C32.5603 14.0104 34.4613 14.5158 36.1384 15.7495C36.83 16.2583 37.4114 16.8765 37.8937 17.6007C37.8274 17.6507 37.7766 17.6921 37.7228 17.7291C37.0005 18.2257 36.3609 18.8118 35.8075 19.4921C34.3388 21.2977 33.829 23.3587 34.1757 25.6442C34.4176 27.239 35.1048 28.6156 36.2259 29.776C36.9111 30.4852 38.0614 31.227 38.9468 31.6568C38.7925 32.0227 38.49 32.613 38.343 32.9822C37.7158 34.5582 36.8718 36.013 35.8786 37.3851C35.1724 38.3607 34.4616 39.3282 33.4967 40.0774C32.6138 40.763 31.6365 41.1057 30.5105 41.0274C29.6527 40.9679 28.8586 40.6999 28.0901 40.3441C26.4107 39.5666 24.6869 39.4114 22.9155 39.9659C22.4738 40.1042 22.057 40.3212 21.6164 40.4644C20.917 40.6916 19.4058 40.9985 18.6708 40.9698Z" fill="white"/>
<path d="M36.2258 29.7764C35.1047 28.616 34.4175 27.2394 34.1757 25.6447C33.829 23.3592 34.3388 21.2981 35.8075 19.4926C36.3608 18.8123 37.0005 18.2262 37.7228 17.7296C37.7766 17.6926 37.8272 17.6512 37.8936 17.6012C37.4112 16.8769 36.8299 16.2588 36.1383 15.75C34.4612 14.5164 32.5601 14.0109 30.4993 14.0723C29.4339 14.1042 28.4334 14.4418 27.4437 14.806C26.8394 15.0284 26.2256 15.2299 25.6356 15.4855C25.1974 15.6755 24.7731 15.7187 24.354 15.6779V39.6712C25.6235 39.5447 26.8686 39.7792 28.0899 40.3446C28.8585 40.7005 29.6526 40.9683 30.5104 41.0279C31.6365 41.1061 32.6138 40.7634 33.4966 40.0779C34.4615 39.3287 35.1723 38.3612 35.8785 37.3855C36.8717 36.0135 37.7157 34.5587 38.3429 32.9827C38.4897 32.6136 38.7924 32.0232 38.9467 31.6573C38.0613 31.2274 36.9109 30.4856 36.2258 29.7764Z" fill="#CCCCCC"/>
<path d="M31.4003 5.45801C31.396 6.02314 31.4604 6.59893 31.375 7.15146C31.0581 9.19951 30.0967 10.9077 28.478 12.2092C27.2782 13.1738 25.9203 13.7495 24.3151 13.6497C24.2239 13.0312 24.2442 12.4174 24.3775 11.8165C24.8543 9.66758 25.9974 7.95684 27.8329 6.73584C28.7803 6.10566 29.8198 5.67549 30.9565 5.50947C31.0109 5.50146 31.3055 5.45801 31.4003 5.45801Z" fill="#CCCCCC"/>
</svg>
