<svg width="170" height="27" viewBox="0 0 170 27" fill="none" xmlns="http://www.w3.org/2000/svg">
<rect width="169.408" height="26.0269" rx="4" fill="#D1FAD0"/>
<path fill-rule="evenodd" clip-rule="evenodd" d="M26.3264 6.77319C26.4772 6.54189 26.412 6.2321 26.1807 6.08125C25.9494 5.9304 25.6396 5.99562 25.4888 6.22692L17.1698 18.9827L12.8905 13.6336C12.7179 13.418 12.4033 13.383 12.1877 13.5555C11.972 13.728 11.9371 14.0427 12.1096 14.2583L16.5554 19.8156C16.7024 19.9992 16.9524 20.0518 17.1566 19.9568C17.3857 20.093 17.6837 20.0253 17.8307 19.7999L26.3264 6.77319Z" fill="#40E026"/>
<path d="M26.1807 6.08125L26.0441 6.29066V6.29066L26.1807 6.08125ZM26.3264 6.77319L26.5358 6.90976V6.90976L26.3264 6.77319ZM25.4888 6.22692L25.2793 6.09036L25.2793 6.09036L25.4888 6.22692ZM17.1698 18.9827L16.9745 19.1389L17.1904 19.4087L17.3792 19.1193L17.1698 18.9827ZM12.8905 13.6336L13.0857 13.4774L12.8905 13.6336ZM12.1877 13.5555L12.3438 13.7507H12.3438L12.1877 13.5555ZM12.1096 14.2583L12.3048 14.1021H12.3048L12.1096 14.2583ZM16.5554 19.8156L16.3602 19.9717L16.3602 19.9717L16.5554 19.8156ZM17.1566 19.9568L17.2844 19.7419L17.1708 19.6744L17.0511 19.7301L17.1566 19.9568ZM17.8307 19.7999L17.6212 19.6634L17.8307 19.7999ZM26.0441 6.29066C26.1598 6.36608 26.1924 6.52097 26.117 6.63662L26.5358 6.90976C26.762 6.56281 26.6642 6.09812 26.3173 5.87185L26.0441 6.29066ZM25.6982 6.36349C25.7736 6.24784 25.9285 6.21523 26.0441 6.29066L26.3173 5.87185C25.9703 5.64558 25.5056 5.74341 25.2793 6.09036L25.6982 6.36349ZM17.3792 19.1193L25.6982 6.36349L25.2793 6.09036L16.9604 18.8462L17.3792 19.1193ZM12.6952 13.7898L16.9745 19.1389L17.365 18.8265L13.0857 13.4774L12.6952 13.7898ZM12.3438 13.7507C12.4517 13.6645 12.609 13.682 12.6952 13.7898L13.0857 13.4774C12.8269 13.154 12.3549 13.1015 12.0315 13.3603L12.3438 13.7507ZM12.3048 14.1021C12.2185 13.9943 12.236 13.837 12.3438 13.7507L12.0315 13.3603C11.7081 13.619 11.6556 14.091 11.9144 14.4145L12.3048 14.1021ZM16.7506 19.6594L12.3048 14.1021L11.9144 14.4145L16.3602 19.9717L16.7506 19.6594ZM17.0511 19.7301C16.949 19.7777 16.8239 19.751 16.7506 19.6594L16.3602 19.9717C16.5808 20.2475 16.9559 20.326 17.2621 20.1834L17.0511 19.7301ZM17.6212 19.6634C17.5478 19.776 17.3988 19.8099 17.2844 19.7419L17.0288 20.1716C17.3727 20.3761 17.8195 20.2746 18.0401 19.9365L17.6212 19.6634ZM26.117 6.63662L17.6212 19.6634L18.0401 19.9365L26.5358 6.90976L26.117 6.63662Z" fill="#40E026"/>
<path d="M41.6846 8.69767V10.0057H39.1286V17.0137H37.6046V10.0057H35.0486V8.69767H41.6846ZM43.2459 17.0137V7.94167L44.6979 7.70167V10.8097C44.8579 10.7537 45.0419 10.7057 45.2499 10.6657C45.4659 10.6257 45.6779 10.6057 45.8859 10.6057C46.3899 10.6057 46.8059 10.6777 47.1339 10.8217C47.4699 10.9577 47.7379 11.1537 47.9379 11.4097C48.1379 11.6577 48.2779 11.9577 48.3579 12.3097C48.4459 12.6617 48.4899 13.0537 48.4899 13.4857V17.0137H47.0379V13.7137C47.0379 13.3777 47.0139 13.0937 46.9659 12.8617C46.9259 12.6217 46.8539 12.4297 46.7499 12.2857C46.6539 12.1337 46.5219 12.0257 46.3539 11.9617C46.1859 11.8897 45.9779 11.8537 45.7299 11.8537C45.5379 11.8537 45.3419 11.8737 45.1419 11.9137C44.9419 11.9537 44.7939 11.9897 44.6979 12.0217V17.0137H43.2459ZM50.3622 13.9057C50.3622 13.3537 50.4422 12.8697 50.6022 12.4537C50.7702 12.0377 50.9902 11.6937 51.2622 11.4217C51.5342 11.1417 51.8462 10.9337 52.1982 10.7977C52.5502 10.6537 52.9102 10.5817 53.2782 10.5817C54.1422 10.5817 54.8142 10.8497 55.2942 11.3857C55.7822 11.9217 56.0262 12.7217 56.0262 13.7857C56.0262 13.8657 56.0222 13.9577 56.0142 14.0617C56.0142 14.1577 56.0102 14.2457 56.0022 14.3257H51.8622C51.9022 14.8297 52.0782 15.2217 52.3902 15.5017C52.7102 15.7737 53.1702 15.9097 53.7702 15.9097C54.1222 15.9097 54.4422 15.8777 54.7302 15.8137C55.0262 15.7497 55.2582 15.6817 55.4262 15.6097L55.6182 16.7977C55.5382 16.8377 55.4262 16.8817 55.2822 16.9297C55.1462 16.9697 54.9862 17.0057 54.8022 17.0377C54.6262 17.0777 54.4342 17.1097 54.2262 17.1337C54.0182 17.1577 53.8062 17.1697 53.5902 17.1697C53.0382 17.1697 52.5582 17.0897 52.1502 16.9297C51.7422 16.7617 51.4062 16.5337 51.1422 16.2457C50.8782 15.9497 50.6822 15.6057 50.5542 15.2137C50.4262 14.8137 50.3622 14.3777 50.3622 13.9057ZM54.5742 13.2577C54.5742 13.0577 54.5462 12.8697 54.4902 12.6937C54.4342 12.5097 54.3502 12.3537 54.2382 12.2257C54.1342 12.0897 54.0022 11.9857 53.8422 11.9137C53.6902 11.8337 53.5062 11.7937 53.2902 11.7937C53.0662 11.7937 52.8702 11.8377 52.7022 11.9257C52.5342 12.0057 52.3902 12.1137 52.2702 12.2497C52.1582 12.3857 52.0702 12.5417 52.0062 12.7177C51.9422 12.8937 51.8982 13.0737 51.8742 13.2577H54.5742ZM61.3985 17.0137V8.69767H66.6545V9.98167H62.9105V12.1057H66.2345V13.3897H62.9105V17.0137H61.3985ZM69.8799 17.0137H68.4279V10.7377H69.8799V17.0137ZM70.0359 8.90167C70.0359 9.17367 69.9479 9.38967 69.7719 9.54967C69.5959 9.70967 69.3879 9.78967 69.1479 9.78967C68.8999 9.78967 68.6879 9.70967 68.5119 9.54967C68.3359 9.38967 68.2479 9.17367 68.2479 8.90167C68.2479 8.62167 68.3359 8.40167 68.5119 8.24167C68.6879 8.08167 68.8999 8.00167 69.1479 8.00167C69.3879 8.00167 69.5959 8.08167 69.7719 8.24167C69.9479 8.40167 70.0359 8.62167 70.0359 8.90167ZM74.3963 17.1337C73.9643 17.1257 73.6043 17.0777 73.3163 16.9897C73.0363 16.9017 72.8123 16.7777 72.6443 16.6177C72.4763 16.4497 72.3563 16.2457 72.2843 16.0057C72.2203 15.7577 72.1883 15.4777 72.1883 15.1657V7.94167L73.6403 7.70167V14.8897C73.6403 15.0657 73.6523 15.2137 73.6763 15.3337C73.7083 15.4537 73.7603 15.5577 73.8323 15.6457C73.9043 15.7257 74.0003 15.7897 74.1203 15.8377C74.2483 15.8777 74.4083 15.9097 74.6003 15.9337L74.3963 17.1337ZM75.9068 13.9057C75.9068 13.3537 75.9868 12.8697 76.1468 12.4537C76.3148 12.0377 76.5348 11.6937 76.8068 11.4217C77.0788 11.1417 77.3908 10.9337 77.7428 10.7977C78.0948 10.6537 78.4548 10.5817 78.8228 10.5817C79.6868 10.5817 80.3588 10.8497 80.8388 11.3857C81.3268 11.9217 81.5708 12.7217 81.5708 13.7857C81.5708 13.8657 81.5668 13.9577 81.5588 14.0617C81.5588 14.1577 81.5548 14.2457 81.5468 14.3257H77.4068C77.4468 14.8297 77.6228 15.2217 77.9348 15.5017C78.2548 15.7737 78.7148 15.9097 79.3148 15.9097C79.6668 15.9097 79.9868 15.8777 80.2748 15.8137C80.5708 15.7497 80.8028 15.6817 80.9708 15.6097L81.1628 16.7977C81.0828 16.8377 80.9708 16.8817 80.8268 16.9297C80.6908 16.9697 80.5308 17.0057 80.3468 17.0377C80.1708 17.0777 79.9788 17.1097 79.7708 17.1337C79.5628 17.1577 79.3508 17.1697 79.1348 17.1697C78.5828 17.1697 78.1028 17.0897 77.6948 16.9297C77.2868 16.7617 76.9508 16.5337 76.6868 16.2457C76.4228 15.9497 76.2268 15.6057 76.0988 15.2137C75.9708 14.8137 75.9068 14.3777 75.9068 13.9057ZM80.1188 13.2577C80.1188 13.0577 80.0908 12.8697 80.0348 12.6937C79.9788 12.5097 79.8948 12.3537 79.7828 12.2257C79.6788 12.0897 79.5468 11.9857 79.3868 11.9137C79.2348 11.8337 79.0508 11.7937 78.8348 11.7937C78.6108 11.7937 78.4148 11.8377 78.2468 11.9257C78.0788 12.0057 77.9348 12.1137 77.8148 12.2497C77.7028 12.3857 77.6148 12.5417 77.5508 12.7177C77.4868 12.8937 77.4428 13.0737 77.4188 13.2577H80.1188ZM86.943 8.69767H88.455V17.0137H86.943V8.69767ZM92.4269 15.9697C92.8109 15.9697 93.0909 15.9257 93.2669 15.8377C93.4429 15.7417 93.5309 15.5817 93.5309 15.3577C93.5309 15.1497 93.4349 14.9777 93.2429 14.8417C93.0589 14.7057 92.7509 14.5577 92.3189 14.3977C92.0549 14.3017 91.8109 14.2017 91.5869 14.0977C91.3709 13.9857 91.1829 13.8577 91.0229 13.7137C90.8629 13.5697 90.7349 13.3977 90.6389 13.1977C90.5509 12.9897 90.5069 12.7377 90.5069 12.4417C90.5069 11.8657 90.7189 11.4137 91.1429 11.0857C91.5669 10.7497 92.1429 10.5817 92.8709 10.5817C93.2389 10.5817 93.5909 10.6177 93.9269 10.6897C94.2629 10.7537 94.5149 10.8177 94.6829 10.8817L94.4189 12.0577C94.2589 11.9857 94.0549 11.9217 93.8069 11.8657C93.5589 11.8017 93.2709 11.7697 92.9429 11.7697C92.6469 11.7697 92.4069 11.8217 92.2229 11.9257C92.0389 12.0217 91.9469 12.1737 91.9469 12.3817C91.9469 12.4857 91.9629 12.5777 91.9949 12.6577C92.0349 12.7377 92.0989 12.8137 92.1869 12.8857C92.2749 12.9497 92.3909 13.0177 92.5349 13.0897C92.6789 13.1537 92.8549 13.2217 93.0629 13.2937C93.4069 13.4217 93.6989 13.5497 93.9389 13.6777C94.1789 13.7977 94.3749 13.9377 94.5269 14.0977C94.6869 14.2497 94.8029 14.4257 94.8749 14.6257C94.9469 14.8257 94.9829 15.0657 94.9829 15.3457C94.9829 15.9457 94.7589 16.4017 94.3109 16.7137C93.8709 17.0177 93.2389 17.1697 92.4149 17.1697C91.8629 17.1697 91.4189 17.1217 91.0829 17.0257C90.7469 16.9377 90.5109 16.8657 90.3749 16.8097L90.6269 15.5977C90.8429 15.6857 91.0989 15.7697 91.3949 15.8497C91.6989 15.9297 92.0429 15.9697 92.4269 15.9697ZM103.868 17.1937C103.244 17.1937 102.684 17.0977 102.188 16.9057C101.692 16.7137 101.272 16.4337 100.928 16.0657C100.584 15.6897 100.32 15.2337 100.136 14.6977C99.9521 14.1617 99.8601 13.5457 99.8601 12.8497C99.8601 12.1537 99.9641 11.5377 100.172 11.0017C100.388 10.4657 100.68 10.0137 101.048 9.64567C101.416 9.26967 101.848 8.98567 102.344 8.79367C102.84 8.60167 103.372 8.50567 103.94 8.50567C104.284 8.50567 104.596 8.53367 104.876 8.58967C105.156 8.63767 105.4 8.69367 105.608 8.75767C105.816 8.82167 105.988 8.88967 106.124 8.96167C106.26 9.03367 106.356 9.08567 106.412 9.11767L105.968 10.3537C105.776 10.2337 105.5 10.1217 105.14 10.0177C104.788 9.90567 104.404 9.84967 103.988 9.84967C103.628 9.84967 103.292 9.91367 102.98 10.0417C102.668 10.1617 102.396 10.3457 102.164 10.5937C101.94 10.8417 101.764 11.1537 101.636 11.5297C101.508 11.9057 101.444 12.3417 101.444 12.8377C101.444 13.2777 101.492 13.6817 101.588 14.0497C101.692 14.4177 101.848 14.7377 102.056 15.0097C102.264 15.2737 102.528 15.4817 102.848 15.6337C103.168 15.7777 103.552 15.8497 104 15.8497C104.536 15.8497 104.972 15.7977 105.308 15.6937C105.644 15.5817 105.904 15.4777 106.088 15.3817L106.496 16.6177C106.4 16.6817 106.268 16.7457 106.1 16.8097C105.94 16.8737 105.748 16.9377 105.524 17.0017C105.3 17.0577 105.048 17.1017 104.768 17.1337C104.488 17.1737 104.188 17.1937 103.868 17.1937ZM113.756 13.8697C113.756 14.3657 113.684 14.8177 113.54 15.2257C113.396 15.6337 113.192 15.9817 112.928 16.2697C112.664 16.5577 112.344 16.7817 111.968 16.9417C111.6 17.1017 111.192 17.1817 110.744 17.1817C110.296 17.1817 109.888 17.1017 109.52 16.9417C109.152 16.7817 108.836 16.5577 108.572 16.2697C108.308 15.9817 108.1 15.6337 107.948 15.2257C107.804 14.8177 107.732 14.3657 107.732 13.8697C107.732 13.3737 107.804 12.9257 107.948 12.5257C108.1 12.1177 108.308 11.7697 108.572 11.4817C108.844 11.1937 109.164 10.9737 109.532 10.8217C109.9 10.6617 110.304 10.5817 110.744 10.5817C111.184 10.5817 111.588 10.6617 111.956 10.8217C112.332 10.9737 112.652 11.1937 112.916 11.4817C113.18 11.7697 113.384 12.1177 113.528 12.5257C113.68 12.9257 113.756 13.3737 113.756 13.8697ZM112.268 13.8697C112.268 13.2457 112.132 12.7537 111.86 12.3937C111.596 12.0257 111.224 11.8417 110.744 11.8417C110.264 11.8417 109.888 12.0257 109.616 12.3937C109.352 12.7537 109.22 13.2457 109.22 13.8697C109.22 14.5017 109.352 15.0017 109.616 15.3697C109.888 15.7377 110.264 15.9217 110.744 15.9217C111.224 15.9217 111.596 15.7377 111.86 15.3697C112.132 15.0017 112.268 14.5017 112.268 13.8697ZM119.308 13.7137C119.308 13.0577 119.224 12.5857 119.056 12.2977C118.896 12.0017 118.592 11.8537 118.144 11.8537C117.984 11.8537 117.808 11.8657 117.616 11.8897C117.424 11.9137 117.28 11.9337 117.184 11.9497V17.0137H115.732V10.9417C116.012 10.8617 116.376 10.7857 116.824 10.7137C117.28 10.6417 117.76 10.6057 118.264 10.6057C118.696 10.6057 119.048 10.6617 119.32 10.7737C119.6 10.8857 119.832 11.0337 120.016 11.2177C120.104 11.1537 120.216 11.0857 120.352 11.0137C120.488 10.9417 120.64 10.8777 120.808 10.8217C120.976 10.7577 121.152 10.7057 121.336 10.6657C121.528 10.6257 121.72 10.6057 121.912 10.6057C122.4 10.6057 122.8 10.6777 123.112 10.8217C123.432 10.9577 123.68 11.1537 123.856 11.4097C124.04 11.6577 124.164 11.9617 124.228 12.3217C124.3 12.6737 124.336 13.0617 124.336 13.4857V17.0137H122.884V13.7137C122.884 13.0577 122.804 12.5857 122.644 12.2977C122.484 12.0017 122.176 11.8537 121.72 11.8537C121.488 11.8537 121.268 11.8937 121.06 11.9737C120.852 12.0457 120.696 12.1177 120.592 12.1897C120.656 12.3897 120.7 12.6017 120.724 12.8257C120.748 13.0497 120.76 13.2897 120.76 13.5457V17.0137H119.308V13.7137ZM130.759 13.9057C130.759 13.2577 130.611 12.7537 130.315 12.3937C130.027 12.0337 129.559 11.8537 128.911 11.8537C128.775 11.8537 128.631 11.8617 128.479 11.8777C128.335 11.8857 128.191 11.9097 128.047 11.9497V15.5377C128.175 15.6257 128.343 15.7097 128.551 15.7897C128.767 15.8617 128.995 15.8977 129.235 15.8977C129.763 15.8977 130.147 15.7177 130.387 15.3577C130.635 14.9977 130.759 14.5137 130.759 13.9057ZM132.247 13.8817C132.247 14.3617 132.183 14.8017 132.055 15.2017C131.935 15.6017 131.759 15.9457 131.527 16.2337C131.295 16.5217 131.003 16.7457 130.651 16.9057C130.307 17.0657 129.915 17.1457 129.475 17.1457C129.179 17.1457 128.907 17.1097 128.659 17.0377C128.411 16.9657 128.207 16.8857 128.047 16.7977V19.2337H126.595V10.9417C126.891 10.8617 127.255 10.7857 127.687 10.7137C128.119 10.6417 128.575 10.6057 129.055 10.6057C129.551 10.6057 129.995 10.6817 130.387 10.8337C130.779 10.9857 131.111 11.2057 131.383 11.4937C131.663 11.7737 131.875 12.1177 132.019 12.5257C132.171 12.9257 132.247 13.3777 132.247 13.8817ZM136.407 17.1337C135.975 17.1257 135.615 17.0777 135.327 16.9897C135.047 16.9017 134.823 16.7777 134.655 16.6177C134.487 16.4497 134.367 16.2457 134.295 16.0057C134.231 15.7577 134.199 15.4777 134.199 15.1657V7.94167L135.651 7.70167V14.8897C135.651 15.0657 135.663 15.2137 135.687 15.3337C135.719 15.4537 135.771 15.5577 135.843 15.6457C135.915 15.7257 136.011 15.7897 136.131 15.8377C136.259 15.8777 136.419 15.9097 136.611 15.9337L136.407 17.1337ZM137.918 13.9057C137.918 13.3537 137.998 12.8697 138.158 12.4537C138.326 12.0377 138.546 11.6937 138.818 11.4217C139.09 11.1417 139.402 10.9337 139.754 10.7977C140.106 10.6537 140.466 10.5817 140.834 10.5817C141.698 10.5817 142.37 10.8497 142.85 11.3857C143.338 11.9217 143.582 12.7217 143.582 13.7857C143.582 13.8657 143.578 13.9577 143.57 14.0617C143.57 14.1577 143.566 14.2457 143.558 14.3257H139.418C139.458 14.8297 139.634 15.2217 139.946 15.5017C140.266 15.7737 140.726 15.9097 141.326 15.9097C141.678 15.9097 141.998 15.8777 142.286 15.8137C142.582 15.7497 142.814 15.6817 142.982 15.6097L143.174 16.7977C143.094 16.8377 142.982 16.8817 142.838 16.9297C142.702 16.9697 142.542 17.0057 142.358 17.0377C142.182 17.0777 141.99 17.1097 141.782 17.1337C141.574 17.1577 141.362 17.1697 141.146 17.1697C140.594 17.1697 140.114 17.0897 139.706 16.9297C139.298 16.7617 138.962 16.5337 138.698 16.2457C138.434 15.9497 138.238 15.6057 138.11 15.2137C137.982 14.8137 137.918 14.3777 137.918 13.9057ZM142.13 13.2577C142.13 13.0577 142.102 12.8697 142.046 12.6937C141.99 12.5097 141.906 12.3537 141.794 12.2257C141.69 12.0897 141.558 11.9857 141.398 11.9137C141.246 11.8337 141.062 11.7937 140.846 11.7937C140.622 11.7937 140.426 11.8377 140.258 11.9257C140.09 12.0057 139.946 12.1137 139.826 12.2497C139.714 12.3857 139.626 12.5417 139.562 12.7177C139.498 12.8937 139.454 13.0737 139.43 13.2577H142.13ZM145.529 9.08167L146.981 8.84167V10.7377H149.213V11.9497H146.981V14.5057C146.981 15.0097 147.061 15.3697 147.221 15.5857C147.381 15.8017 147.653 15.9097 148.037 15.9097C148.301 15.9097 148.533 15.8817 148.733 15.8257C148.941 15.7697 149.105 15.7177 149.225 15.6697L149.465 16.8217C149.297 16.8937 149.077 16.9657 148.805 17.0377C148.533 17.1177 148.213 17.1577 147.845 17.1577C147.397 17.1577 147.021 17.0977 146.717 16.9777C146.421 16.8577 146.185 16.6857 146.009 16.4617C145.833 16.2297 145.709 15.9537 145.637 15.6337C145.565 15.3057 145.529 14.9337 145.529 14.5177V9.08167ZM150.643 13.9057C150.643 13.3537 150.723 12.8697 150.883 12.4537C151.051 12.0377 151.271 11.6937 151.543 11.4217C151.815 11.1417 152.127 10.9337 152.479 10.7977C152.831 10.6537 153.191 10.5817 153.559 10.5817C154.423 10.5817 155.095 10.8497 155.575 11.3857C156.063 11.9217 156.307 12.7217 156.307 13.7857C156.307 13.8657 156.303 13.9577 156.295 14.0617C156.295 14.1577 156.291 14.2457 156.283 14.3257H152.143C152.183 14.8297 152.359 15.2217 152.671 15.5017C152.991 15.7737 153.451 15.9097 154.051 15.9097C154.403 15.9097 154.723 15.8777 155.011 15.8137C155.307 15.7497 155.539 15.6817 155.707 15.6097L155.899 16.7977C155.819 16.8377 155.707 16.8817 155.563 16.9297C155.427 16.9697 155.267 17.0057 155.083 17.0377C154.907 17.0777 154.715 17.1097 154.507 17.1337C154.299 17.1577 154.087 17.1697 153.871 17.1697C153.319 17.1697 152.839 17.0897 152.431 16.9297C152.023 16.7617 151.687 16.5337 151.423 16.2457C151.159 15.9497 150.963 15.6057 150.835 15.2137C150.707 14.8137 150.643 14.3777 150.643 13.9057ZM154.855 13.2577C154.855 13.0577 154.827 12.8697 154.771 12.6937C154.715 12.5097 154.631 12.3537 154.519 12.2257C154.415 12.0897 154.283 11.9857 154.123 11.9137C153.971 11.8337 153.787 11.7937 153.571 11.7937C153.347 11.7937 153.151 11.8377 152.983 11.9257C152.815 12.0057 152.671 12.1137 152.551 12.2497C152.439 12.3857 152.351 12.5417 152.287 12.7177C152.223 12.8937 152.179 13.0737 152.155 13.2577H154.855Z" fill="#292929"/>
</svg>
