<svg width="24" height="22" viewBox="0 0 24 22" fill="none" xmlns="http://www.w3.org/2000/svg">
<path d="M3.00947 7.00065C4.50048 2.91694 8.4209 0 13.017 0C18.8947 0 23.6671 4.77242 23.6671 10.6501C23.6671 16.5277 18.8947 21.3002 13.017 21.3002C9.07884 21.3002 5.6365 19.1583 3.79404 15.9763C3.46744 15.4107 3.66031 14.6865 4.22595 14.3587C4.7904 14.0321 5.51462 14.225 5.84241 14.7906C7.27544 17.2661 9.95333 18.9335 13.017 18.9335C17.5882 18.9335 21.3004 15.2213 21.3004 10.6501C21.3004 6.07765 17.5882 2.36668 13.017 2.36668C9.21019 2.36668 5.99978 4.93928 5.0318 8.4396L7.10504 7.25626C7.67186 6.93202 8.39488 7.12845 8.71911 7.69646C9.04335 8.26328 8.84572 8.98631 8.2789 9.31054L4.1372 11.6772C3.85675 11.8382 3.52306 11.876 3.21302 11.7837C2.90299 11.6914 2.645 11.4772 2.49709 11.1897L0.130403 6.5711C-0.1678 5.99008 0.0629588 5.27652 0.64398 4.97832C1.225 4.68012 1.93855 4.91087 2.23675 5.49189L3.00947 7.00065ZM14.2003 10.1602L17.4037 13.3635C17.8652 13.825 17.8652 14.5752 17.4037 15.0367C16.9421 15.4982 16.1919 15.4982 15.7304 15.0367L12.1804 11.4867C11.9579 11.2642 11.8337 10.9637 11.8337 10.6501V5.91671C11.8337 5.26351 12.3638 4.73337 13.017 4.73337C13.6702 4.73337 14.2003 5.26351 14.2003 5.91671V10.1602Z" fill="#252525"/>
</svg>
