<svg width="18" height="23" viewBox="0 0 18 23" fill="none" xmlns="http://www.w3.org/2000/svg">
<path d="M1.03891 19.1099C1.03364 18.3677 1.32297 17.6586 1.84343 17.1381C2.36389 16.6176 3.073 16.3283 3.81522 16.3336L15.0091 16.4268C15.746 16.4416 16.4522 16.7463 16.9745 17.2747C17.4968 17.8031 17.7932 18.5127 17.7993 19.2495C17.8055 19.9864 17.5209 20.6911 17.0073 21.2109C16.4937 21.7307 15.7925 22.0236 15.0558 22.0261L3.86186 21.9328C3.11963 21.9257 2.40561 21.6246 1.8764 21.0953C1.3472 20.5661 1.04601 19.8521 1.03891 19.1099ZM5.17073 11.3288C5.16518 10.5865 5.45441 9.87723 5.97494 9.35671C6.49546 8.83618 7.20473 8.54695 7.94704 8.55251L10.7463 8.57583C11.4832 8.59063 12.1893 8.89526 12.7117 9.42367C13.234 9.95208 13.5304 10.6616 13.5365 11.3985C13.5427 12.1354 13.2581 12.8401 12.7445 13.3599C12.2309 13.8796 11.5297 14.1726 10.7929 14.1751L7.99369 14.1518C7.25145 14.1447 6.53743 13.8435 6.00822 13.3143C5.47902 12.7851 5.17784 12.071 5.17073 11.3288ZM0.907166 3.48089C0.901488 2.73813 1.19084 2.0284 1.71168 1.50756C2.23251 0.986725 2.94225 0.697371 3.685 0.703049L14.8789 0.796303C15.619 0.805993 16.3299 1.10832 16.8564 1.63716C17.3828 2.166 17.6819 2.87833 17.6882 3.61837C17.6944 4.35841 17.4074 5.06594 16.8898 5.58623C16.3723 6.10652 15.6663 6.39723 14.9263 6.3948L3.72934 6.30306C2.98737 6.29576 2.27366 5.9946 1.74465 5.46558C1.21563 4.93656 0.914468 4.22286 0.907166 3.48089Z" fill="#FFB200"/>
</svg>
