<svg width="217" height="75" viewBox="0 0 217 75" fill="none" xmlns="http://www.w3.org/2000/svg">
<path d="M7.18013 21.992C8.63079 21.992 9.68679 21.7467 10.3481 21.256C11.0095 20.7653 11.3401 20.072 11.3401 19.176C11.3401 18.6427 11.2228 18.184 10.9881 17.8C10.7748 17.416 10.4548 17.0747 10.0281 16.776C9.62279 16.456 9.12146 16.168 8.52413 15.912C7.92679 15.6347 7.24413 15.368 6.47613 15.112C5.70812 14.8347 4.96146 14.536 4.23612 14.216C3.53212 13.8747 2.90279 13.4587 2.34812 12.968C1.81479 12.4773 1.37746 11.8907 1.03612 11.208C0.716125 10.5253 0.556125 9.704 0.556125 8.744C0.556125 6.73867 1.24946 5.17067 2.63612 4.04C4.02279 2.888 5.91079 2.312 8.30013 2.312C9.68679 2.312 10.9135 2.472 11.9801 2.792C13.0681 3.09067 13.9215 3.42133 14.5401 3.784L13.2921 7.048C12.5668 6.64267 11.7668 6.33333 10.8921 6.12C10.0388 5.90667 9.15346 5.8 8.23612 5.8C7.14813 5.8 6.29479 6.024 5.67613 6.472C5.07879 6.92 4.78013 7.54933 4.78013 8.36C4.78013 8.85067 4.87613 9.27733 5.06812 9.64C5.28146 9.98133 5.56946 10.2907 5.93213 10.568C6.31612 10.8453 6.75346 11.1013 7.24413 11.336C7.75613 11.5707 8.31079 11.7947 8.90812 12.008C9.95346 12.392 10.8815 12.7867 11.6921 13.192C12.5241 13.576 13.2175 14.0453 13.7721 14.6C14.3481 15.1333 14.7855 15.7733 15.0841 16.52C15.3828 17.2453 15.5321 18.1307 15.5321 19.176C15.5321 21.1813 14.8175 22.7387 13.3881 23.848C11.9801 24.936 9.91079 25.48 7.18013 25.48C6.26279 25.48 5.42012 25.416 4.65212 25.288C3.90546 25.1813 3.23346 25.0427 2.63612 24.872C2.06012 24.7013 1.55879 24.5307 1.13212 24.36C0.705458 24.168 0.364125 23.9973 0.108125 23.848L1.29212 20.552C1.86812 20.872 2.64679 21.192 3.62812 21.512C4.60946 21.832 5.79346 21.992 7.18013 21.992ZM19.2454 16.712C19.2454 15.24 19.4587 13.9493 19.8854 12.84C20.3334 11.7307 20.92 10.8133 21.6454 10.088C22.3707 9.34133 23.2027 8.78667 24.1414 8.424C25.08 8.04 26.04 7.848 27.0214 7.848C29.3254 7.848 31.1174 8.56267 32.3974 9.992C33.6987 11.4213 34.3494 13.5547 34.3494 16.392C34.3494 16.6053 34.3387 16.8507 34.3174 17.128C34.3174 17.384 34.3067 17.6187 34.2854 17.832H23.2454C23.352 19.176 23.8214 20.2213 24.6534 20.968C25.5067 21.6933 26.7334 22.056 28.3334 22.056C29.272 22.056 30.1254 21.9707 30.8934 21.8C31.6827 21.6293 32.3014 21.448 32.7494 21.256L33.2614 24.424C33.048 24.5307 32.7494 24.648 32.3654 24.776C32.0027 24.8827 31.576 24.9787 31.0854 25.064C30.616 25.1707 30.104 25.256 29.5494 25.32C28.9947 25.384 28.4294 25.416 27.8534 25.416C26.3814 25.416 25.1014 25.2027 24.0134 24.776C22.9254 24.328 22.0294 23.72 21.3254 22.952C20.6214 22.1627 20.0987 21.2453 19.7574 20.2C19.416 19.1333 19.2454 17.9707 19.2454 16.712ZM30.4774 14.984C30.4774 14.4507 30.4027 13.9493 30.2534 13.48C30.104 12.9893 29.88 12.5733 29.5814 12.232C29.304 11.8693 28.952 11.592 28.5254 11.4C28.12 11.1867 27.6294 11.08 27.0534 11.08C26.456 11.08 25.9334 11.1973 25.4854 11.432C25.0374 11.6453 24.6534 11.9333 24.3334 12.296C24.0347 12.6587 23.8 13.0747 23.6294 13.544C23.4587 14.0133 23.3414 14.4933 23.2774 14.984H30.4774ZM45.6226 22.28C46.8173 22.28 47.724 22.216 48.3426 22.088V17.8C48.1293 17.736 47.82 17.672 47.4146 17.608C47.0093 17.544 46.5613 17.512 46.0706 17.512C45.644 17.512 45.2066 17.544 44.7586 17.608C44.332 17.672 43.9373 17.7893 43.5746 17.96C43.2333 18.1307 42.956 18.376 42.7426 18.696C42.5293 18.9947 42.4226 19.3787 42.4226 19.848C42.4226 20.7653 42.7106 21.4053 43.2866 21.768C43.8626 22.1093 44.6413 22.28 45.6226 22.28ZM45.3026 7.848C46.5826 7.848 47.66 8.008 48.5346 8.328C49.4093 8.648 50.1026 9.096 50.6146 9.672C51.148 10.248 51.5213 10.952 51.7346 11.784C51.9693 12.5947 52.0866 13.4907 52.0866 14.472V24.616C51.4893 24.744 50.5826 24.8933 49.3666 25.064C48.172 25.256 46.8173 25.352 45.3026 25.352C44.3 25.352 43.3826 25.256 42.5506 25.064C41.7186 24.872 41.004 24.5627 40.4066 24.136C39.8306 23.7093 39.372 23.1547 39.0306 22.472C38.7106 21.7893 38.5506 20.9467 38.5506 19.944C38.5506 18.984 38.732 18.1733 39.0946 17.512C39.4786 16.8507 39.9906 16.3173 40.6306 15.912C41.2706 15.4853 42.0066 15.1867 42.8386 15.016C43.692 14.824 44.5773 14.728 45.4946 14.728C45.9213 14.728 46.3693 14.76 46.8386 14.824C47.308 14.8667 47.8093 14.952 48.3426 15.08V14.44C48.3426 13.992 48.2893 13.5653 48.1826 13.16C48.076 12.7547 47.884 12.4027 47.6066 12.104C47.3506 11.784 46.9986 11.5387 46.5506 11.368C46.124 11.1973 45.58 11.112 44.9186 11.112C44.0226 11.112 43.2013 11.176 42.4546 11.304C41.708 11.432 41.1 11.5813 40.6306 11.752L40.1506 8.616C40.6413 8.44533 41.356 8.27467 42.2946 8.104C43.2333 7.93333 44.236 7.848 45.3026 7.848ZM67.6444 11.752C67.3244 11.6453 66.8764 11.5387 66.3004 11.432C65.7457 11.304 65.095 11.24 64.3484 11.24C63.9217 11.24 63.463 11.2827 62.9724 11.368C62.503 11.4533 62.1724 11.528 61.9804 11.592V25H58.1084V9.064C58.855 8.78667 59.783 8.53067 60.8924 8.296C62.023 8.04 63.271 7.912 64.6364 7.912C64.8924 7.912 65.191 7.93333 65.5324 7.976C65.8737 7.99733 66.215 8.04 66.5564 8.104C66.8977 8.14667 67.2284 8.21067 67.5484 8.296C67.8684 8.36 68.1244 8.424 68.3164 8.488L67.6444 11.752ZM71.3666 16.648C71.3666 15.4107 71.5586 14.2587 71.9426 13.192C72.3266 12.104 72.8706 11.1653 73.5746 10.376C74.3 9.58667 75.1746 8.968 76.1986 8.52C77.2226 8.072 78.3746 7.848 79.6546 7.848C81.2333 7.848 82.7266 8.136 84.1346 8.712L83.3026 11.88C82.8546 11.688 82.3426 11.528 81.7666 11.4C81.212 11.272 80.6146 11.208 79.9746 11.208C78.46 11.208 77.308 11.688 76.5186 12.648C75.7293 13.5867 75.3346 14.92 75.3346 16.648C75.3346 18.312 75.708 19.6347 76.4546 20.616C77.2013 21.576 78.46 22.056 80.2306 22.056C80.892 22.056 81.5426 21.992 82.1826 21.864C82.8226 21.736 83.3773 21.576 83.8466 21.384L84.3906 24.584C83.964 24.7973 83.3133 24.9893 82.4386 25.16C81.5853 25.3307 80.7 25.416 79.7826 25.416C78.3533 25.416 77.1053 25.2027 76.0386 24.776C74.9933 24.328 74.1186 23.72 73.4146 22.952C72.732 22.1627 72.22 21.2347 71.8786 20.168C71.5373 19.08 71.3666 17.9067 71.3666 16.648ZM88.6684 25V0.807999L92.5404 0.167999V8.456C92.967 8.30667 93.4577 8.17867 94.0124 8.072C94.5884 7.96533 95.1537 7.912 95.7084 7.912C97.0524 7.912 98.1617 8.104 99.0364 8.488C99.9324 8.85067 100.647 9.37333 101.18 10.056C101.714 10.7173 102.087 11.5173 102.3 12.456C102.535 13.3947 102.652 14.44 102.652 15.592V25H98.7804V16.2C98.7804 15.304 98.7164 14.5467 98.5884 13.928C98.4817 13.288 98.2897 12.776 98.0124 12.392C97.7564 11.9867 97.4044 11.6987 96.9564 11.528C96.5084 11.336 95.9537 11.24 95.2924 11.24C94.7804 11.24 94.2577 11.2933 93.7244 11.4C93.191 11.5067 92.7964 11.6027 92.5404 11.688V25H88.6684ZM112.477 25H108.605V8.264H112.477V25ZM112.893 3.368C112.893 4.09333 112.659 4.66933 112.189 5.096C111.72 5.52267 111.165 5.736 110.525 5.736C109.864 5.736 109.299 5.52267 108.829 5.096C108.36 4.66933 108.125 4.09333 108.125 3.368C108.125 2.62133 108.36 2.03467 108.829 1.608C109.299 1.18133 109.864 0.967999 110.525 0.967999C111.165 0.967999 111.72 1.18133 112.189 1.608C112.659 2.03467 112.893 2.62133 112.893 3.368ZM118.697 8.808C119.444 8.59467 120.414 8.392 121.609 8.2C122.804 8.008 124.126 7.912 125.577 7.912C126.942 7.912 128.084 8.104 129.001 8.488C129.918 8.85067 130.644 9.37333 131.177 10.056C131.732 10.7173 132.116 11.528 132.329 12.488C132.564 13.4267 132.681 14.4613 132.681 15.592V25H128.809V16.2C128.809 15.304 128.745 14.5467 128.617 13.928C128.51 13.288 128.318 12.776 128.041 12.392C127.785 11.9867 127.422 11.6987 126.953 11.528C126.505 11.336 125.95 11.24 125.289 11.24C124.798 11.24 124.286 11.272 123.753 11.336C123.22 11.4 122.825 11.4533 122.569 11.496V25H118.697V8.808ZM141.736 16.2C141.736 17.8427 142.088 19.048 142.792 19.816C143.517 20.5627 144.445 20.936 145.576 20.936C146.195 20.936 146.771 20.8507 147.304 20.68C147.859 20.5093 148.307 20.3067 148.648 20.072V11.4C148.371 11.336 148.029 11.2827 147.624 11.24C147.219 11.176 146.707 11.144 146.088 11.144C144.68 11.144 143.603 11.6133 142.856 12.552C142.109 13.4693 141.736 14.6853 141.736 16.2ZM152.52 23.304C152.52 25.9707 151.837 27.9227 150.472 29.16C149.128 30.3973 147.059 31.016 144.264 31.016C143.24 31.016 142.237 30.9307 141.256 30.76C140.296 30.5893 139.421 30.3653 138.632 30.088L139.336 26.792C139.997 27.0693 140.744 27.2933 141.576 27.464C142.429 27.6347 143.347 27.72 144.328 27.72C145.885 27.72 146.995 27.4 147.656 26.76C148.317 26.12 148.648 25.1707 148.648 23.912V23.272C148.264 23.464 147.752 23.656 147.112 23.848C146.493 24.04 145.779 24.136 144.968 24.136C143.901 24.136 142.92 23.9653 142.024 23.624C141.149 23.2827 140.392 22.7813 139.752 22.12C139.133 21.4587 138.643 20.6373 138.28 19.656C137.939 18.6533 137.768 17.5013 137.768 16.2C137.768 14.984 137.949 13.864 138.312 12.84C138.696 11.816 139.24 10.9413 139.944 10.216C140.669 9.49067 141.544 8.92533 142.568 8.52C143.592 8.11467 144.755 7.912 146.056 7.912C147.315 7.912 148.509 8.008 149.64 8.2C150.771 8.392 151.731 8.59467 152.52 8.808V23.304ZM167.667 25V2.824H181.683V6.248H171.699V11.912H180.563V15.336H171.699V25H167.667ZM201.141 16.616C201.141 17.9387 200.949 19.144 200.565 20.232C200.181 21.32 199.637 22.248 198.933 23.016C198.229 23.784 197.375 24.3813 196.373 24.808C195.391 25.2347 194.303 25.448 193.109 25.448C191.914 25.448 190.826 25.2347 189.845 24.808C188.863 24.3813 188.021 23.784 187.317 23.016C186.613 22.248 186.058 21.32 185.653 20.232C185.269 19.144 185.077 17.9387 185.077 16.616C185.077 15.2933 185.269 14.0987 185.653 13.032C186.058 11.944 186.613 11.016 187.317 10.248C188.042 9.48 188.895 8.89333 189.877 8.488C190.858 8.06133 191.935 7.848 193.109 7.848C194.282 7.848 195.359 8.06133 196.341 8.488C197.343 8.89333 198.197 9.48 198.901 10.248C199.605 11.016 200.149 11.944 200.533 13.032C200.938 14.0987 201.141 15.2933 201.141 16.616ZM197.173 16.616C197.173 14.952 196.81 13.64 196.085 12.68C195.381 11.6987 194.389 11.208 193.109 11.208C191.829 11.208 190.826 11.6987 190.101 12.68C189.397 13.64 189.045 14.952 189.045 16.616C189.045 18.3013 189.397 19.6347 190.101 20.616C190.826 21.5973 191.829 22.088 193.109 22.088C194.389 22.088 195.381 21.5973 196.085 20.616C196.81 19.6347 197.173 18.3013 197.173 16.616ZM215.946 11.752C215.626 11.6453 215.178 11.5387 214.602 11.432C214.047 11.304 213.396 11.24 212.65 11.24C212.223 11.24 211.764 11.2827 211.274 11.368C210.804 11.4533 210.474 11.528 210.282 11.592V25H206.41V9.064C207.156 8.78667 208.084 8.53067 209.194 8.296C210.324 8.04 211.572 7.912 212.938 7.912C213.194 7.912 213.492 7.93333 213.834 7.976C214.175 7.99733 214.516 8.04 214.858 8.104C215.199 8.14667 215.53 8.21067 215.85 8.296C216.17 8.36 216.426 8.424 216.618 8.488L215.946 11.752ZM28.8042 70.672C29.0389 70.6933 29.3482 70.7147 29.7322 70.736C30.1162 70.736 30.6389 70.736 31.3002 70.736C34.0096 70.736 36.0256 70.0533 37.3482 68.688C38.6922 67.3013 39.3643 65.3707 39.3643 62.896C39.3643 60.3787 38.7136 58.448 37.4122 57.104C36.1109 55.76 34.0949 55.088 31.3642 55.088C30.1696 55.088 29.3162 55.12 28.8042 55.184V70.672ZM43.5882 62.896C43.5882 64.816 43.2896 66.4907 42.6922 67.92C42.0949 69.328 41.2416 70.512 40.1322 71.472C39.0442 72.4107 37.7216 73.1147 36.1642 73.584C34.6282 74.032 32.9216 74.256 31.0442 74.256C30.1482 74.256 29.1349 74.2133 28.0042 74.128C26.8736 74.064 25.7962 73.9147 24.7722 73.68V52.144C25.7962 51.9093 26.8842 51.76 28.0362 51.696C29.1882 51.632 30.2122 51.6 31.1082 51.6C32.9642 51.6 34.6603 51.824 36.1962 52.272C37.7322 52.6987 39.0442 53.3813 40.1322 54.32C41.2416 55.2373 42.0949 56.4107 42.6922 57.84C43.2896 59.248 43.5882 60.9333 43.5882 62.896ZM48.151 65.712C48.151 64.24 48.3643 62.9493 48.791 61.84C49.239 60.7307 49.8257 59.8133 50.551 59.088C51.2763 58.3413 52.1083 57.7867 53.047 57.424C53.9857 57.04 54.9457 56.848 55.927 56.848C58.231 56.848 60.023 57.5627 61.303 58.992C62.6043 60.4213 63.255 62.5547 63.255 65.392C63.255 65.6053 63.2443 65.8507 63.223 66.128C63.223 66.384 63.2123 66.6187 63.191 66.832H52.151C52.2577 68.176 52.727 69.2213 53.559 69.968C54.4123 70.6933 55.639 71.056 57.239 71.056C58.1777 71.056 59.031 70.9707 59.799 70.8C60.5883 70.6293 61.207 70.448 61.655 70.256L62.167 73.424C61.9537 73.5307 61.655 73.648 61.271 73.776C60.9083 73.8827 60.4817 73.9787 59.991 74.064C59.5217 74.1707 59.0097 74.256 58.455 74.32C57.9003 74.384 57.335 74.416 56.759 74.416C55.287 74.416 54.007 74.2027 52.919 73.776C51.831 73.328 50.935 72.72 50.231 71.952C49.527 71.1627 49.0043 70.2453 48.663 69.2C48.3217 68.1333 48.151 66.9707 48.151 65.712ZM59.383 63.984C59.383 63.4507 59.3083 62.9493 59.159 62.48C59.0097 61.9893 58.7857 61.5733 58.487 61.232C58.2097 60.8693 57.8577 60.592 57.431 60.4C57.0257 60.1867 56.535 60.08 55.959 60.08C55.3617 60.08 54.839 60.1973 54.391 60.432C53.943 60.6453 53.559 60.9333 53.239 61.296C52.9403 61.6587 52.7057 62.0747 52.535 62.544C52.3643 63.0133 52.247 63.4933 52.183 63.984H59.383ZM72.9283 74C71.8616 71.8027 70.7629 69.2853 69.6323 66.448C68.5229 63.5893 67.5096 60.528 66.5923 57.264H70.7203C70.9549 58.2027 71.2216 59.216 71.5203 60.304C71.8403 61.3707 72.1709 62.448 72.5123 63.536C72.8749 64.6027 73.2376 65.648 73.6003 66.672C73.9843 67.6747 74.3363 68.5813 74.6563 69.392C74.9763 68.5813 75.3176 67.6747 75.6803 66.672C76.0429 65.648 76.3949 64.6027 76.7363 63.536C77.0989 62.448 77.4403 61.3707 77.7603 60.304C78.0803 59.216 78.3576 58.2027 78.5923 57.264H82.5923C81.6749 60.528 80.6509 63.5893 79.5203 66.448C78.4109 69.2853 77.3229 71.8027 76.2563 74H72.9283ZM90.668 74H86.796V57.264H90.668V74ZM91.084 52.368C91.084 53.0933 90.8493 53.6693 90.38 54.096C89.9107 54.5227 89.356 54.736 88.716 54.736C88.0547 54.736 87.4893 54.5227 87.02 54.096C86.5507 53.6693 86.316 53.0933 86.316 52.368C86.316 51.6213 86.5507 51.0347 87.02 50.608C87.4893 50.1813 88.0547 49.968 88.716 49.968C89.356 49.968 89.9107 50.1813 90.38 50.608C90.8493 51.0347 91.084 51.6213 91.084 52.368ZM95.9598 65.648C95.9598 64.4107 96.1518 63.2587 96.5358 62.192C96.9198 61.104 97.4638 60.1653 98.1678 59.376C98.8931 58.5867 99.7678 57.968 100.792 57.52C101.816 57.072 102.968 56.848 104.248 56.848C105.826 56.848 107.32 57.136 108.728 57.712L107.896 60.88C107.448 60.688 106.936 60.528 106.36 60.4C105.805 60.272 105.208 60.208 104.568 60.208C103.053 60.208 101.901 60.688 101.112 61.648C100.322 62.5867 99.9278 63.92 99.9278 65.648C99.9278 67.312 100.301 68.6347 101.048 69.616C101.794 70.576 103.053 71.056 104.824 71.056C105.485 71.056 106.136 70.992 106.776 70.864C107.416 70.736 107.97 70.576 108.44 70.384L108.984 73.584C108.557 73.7973 107.906 73.9893 107.032 74.16C106.178 74.3307 105.293 74.416 104.376 74.416C102.946 74.416 101.698 74.2027 100.632 73.776C99.5864 73.328 98.7118 72.72 98.0078 71.952C97.3251 71.1627 96.8131 70.2347 96.4718 69.168C96.1304 68.08 95.9598 66.9067 95.9598 65.648ZM112.334 65.712C112.334 64.24 112.547 62.9493 112.974 61.84C113.422 60.7307 114.008 59.8133 114.734 59.088C115.459 58.3413 116.291 57.7867 117.23 57.424C118.168 57.04 119.128 56.848 120.11 56.848C122.414 56.848 124.206 57.5627 125.486 58.992C126.787 60.4213 127.438 62.5547 127.438 65.392C127.438 65.6053 127.427 65.8507 127.406 66.128C127.406 66.384 127.395 66.6187 127.374 66.832H116.334C116.44 68.176 116.91 69.2213 117.742 69.968C118.595 70.6933 119.822 71.056 121.422 71.056C122.36 71.056 123.214 70.9707 123.982 70.8C124.771 70.6293 125.39 70.448 125.838 70.256L126.35 73.424C126.136 73.5307 125.838 73.648 125.454 73.776C125.091 73.8827 124.664 73.9787 124.174 74.064C123.704 74.1707 123.192 74.256 122.638 74.32C122.083 74.384 121.518 74.416 120.942 74.416C119.47 74.416 118.19 74.2027 117.102 73.776C116.014 73.328 115.118 72.72 114.414 71.952C113.71 71.1627 113.187 70.2453 112.846 69.2C112.504 68.1333 112.334 66.9707 112.334 65.712ZM123.566 63.984C123.566 63.4507 123.491 62.9493 123.342 62.48C123.192 61.9893 122.968 61.5733 122.67 61.232C122.392 60.8693 122.04 60.592 121.614 60.4C121.208 60.1867 120.718 60.08 120.142 60.08C119.544 60.08 119.022 60.1973 118.574 60.432C118.126 60.6453 117.742 60.9333 117.422 61.296C117.123 61.6587 116.888 62.0747 116.718 62.544C116.547 63.0133 116.43 63.4933 116.366 63.984H123.566ZM137.015 71.216C138.039 71.216 138.785 71.0987 139.255 70.864C139.724 70.608 139.959 70.1813 139.959 69.584C139.959 69.0293 139.703 68.5707 139.191 68.208C138.7 67.8453 137.879 67.4507 136.727 67.024C136.023 66.768 135.372 66.5013 134.775 66.224C134.199 65.9253 133.697 65.584 133.271 65.2C132.844 64.816 132.503 64.3573 132.247 63.824C132.012 63.2693 131.895 62.5973 131.895 61.808C131.895 60.272 132.46 59.0667 133.591 58.192C134.721 57.296 136.257 56.848 138.199 56.848C139.18 56.848 140.119 56.944 141.015 57.136C141.911 57.3067 142.583 57.4773 143.031 57.648L142.327 60.784C141.9 60.592 141.356 60.4213 140.695 60.272C140.033 60.1013 139.265 60.016 138.391 60.016C137.601 60.016 136.961 60.1547 136.471 60.432C135.98 60.688 135.735 61.0933 135.735 61.648C135.735 61.9253 135.777 62.1707 135.863 62.384C135.969 62.5973 136.14 62.8 136.375 62.992C136.609 63.1627 136.919 63.344 137.303 63.536C137.687 63.7067 138.156 63.888 138.711 64.08C139.628 64.4213 140.407 64.7627 141.047 65.104C141.687 65.424 142.209 65.7973 142.615 66.224C143.041 66.6293 143.351 67.0987 143.543 67.632C143.735 68.1653 143.831 68.8053 143.831 69.552C143.831 71.152 143.233 72.368 142.039 73.2C140.865 74.0107 139.18 74.416 136.983 74.416C135.511 74.416 134.327 74.288 133.431 74.032C132.535 73.7973 131.905 73.6053 131.543 73.456L132.215 70.224C132.791 70.4587 133.473 70.6827 134.263 70.896C135.073 71.1093 135.991 71.216 137.015 71.216ZM161.829 71.888C161.829 72.6347 161.573 73.2427 161.061 73.712C160.57 74.1813 159.973 74.416 159.269 74.416C158.543 74.416 157.935 74.1813 157.445 73.712C156.954 73.2427 156.709 72.6347 156.709 71.888C156.709 71.1413 156.954 70.5333 157.445 70.064C157.935 69.5733 158.543 69.328 159.269 69.328C159.973 69.328 160.57 69.5733 161.061 70.064C161.573 70.5333 161.829 71.1413 161.829 71.888ZM171.609 71.888C171.609 72.6347 171.353 73.2427 170.841 73.712C170.35 74.1813 169.753 74.416 169.049 74.416C168.323 74.416 167.715 74.1813 167.225 73.712C166.734 73.2427 166.489 72.6347 166.489 71.888C166.489 71.1413 166.734 70.5333 167.225 70.064C167.715 69.5733 168.323 69.328 169.049 69.328C169.753 69.328 170.35 69.5733 170.841 70.064C171.353 70.5333 171.609 71.1413 171.609 71.888ZM181.389 71.888C181.389 72.6347 181.133 73.2427 180.621 73.712C180.13 74.1813 179.533 74.416 178.829 74.416C178.103 74.416 177.495 74.1813 177.005 73.712C176.514 73.2427 176.269 72.6347 176.269 71.888C176.269 71.1413 176.514 70.5333 177.005 70.064C177.495 69.5733 178.103 69.328 178.829 69.328C179.533 69.328 180.13 69.5733 180.621 70.064C181.133 70.5333 181.389 71.1413 181.389 71.888ZM191.169 71.888C191.169 72.6347 190.913 73.2427 190.401 73.712C189.91 74.1813 189.313 74.416 188.609 74.416C187.883 74.416 187.275 74.1813 186.785 73.712C186.294 73.2427 186.049 72.6347 186.049 71.888C186.049 71.1413 186.294 70.5333 186.785 70.064C187.275 69.5733 187.883 69.328 188.609 69.328C189.313 69.328 189.91 69.5733 190.401 70.064C190.913 70.5333 191.169 71.1413 191.169 71.888ZM200.949 71.888C200.949 72.6347 200.693 73.2427 200.181 73.712C199.69 74.1813 199.093 74.416 198.389 74.416C197.663 74.416 197.055 74.1813 196.565 73.712C196.074 73.2427 195.829 72.6347 195.829 71.888C195.829 71.1413 196.074 70.5333 196.565 70.064C197.055 69.5733 197.663 69.328 198.389 69.328C199.093 69.328 199.69 69.5733 200.181 70.064C200.693 70.5333 200.949 71.1413 200.949 71.888Z" fill="#181817"/>
</svg>
