<svg width="138" height="28" viewBox="0 0 138 28" fill="none" xmlns="http://www.w3.org/2000/svg">
<rect width="138" height="28" rx="4" fill="#F3F3F3"/>
<path d="M18.9091 9.71429V17.5714C18.9091 19.143 17.6001 20.4286 16 20.4286C14.3999 20.4286 13.0909 19.143 13.0909 17.5714V9.35717C13.0909 8.35722 13.891 7.57143 14.9091 7.57143C15.9272 7.57143 16.7273 8.35722 16.7273 9.35717V17.5714C16.7273 17.9642 16.3998 18.2857 16 18.2857C15.6001 18.2857 15.2727 17.9642 15.2727 17.5714V10.7857H14.1818V17.5714C14.1818 18.5714 14.9819 19.3571 16 19.3571C17.0181 19.3571 17.8182 18.5714 17.8182 17.5714V9.35717C17.8182 7.78575 16.5092 6.5 14.9091 6.5C13.3089 6.5 12 7.78575 12 9.35717V17.5714C12 19.7499 13.782 21.5 16 21.5C18.218 21.5 20 19.7499 20 17.5714V9.71429H18.9091Z" fill="#277BC0"/>
<path d="M29.3319 11.314C29.8732 11.0993 30.4146 10.824 30.9559 10.488C31.5066 10.152 31.9919 9.75533 32.4119 9.298H33.6019V19H31.9079V11.566C31.6559 11.762 31.3386 11.9533 30.9559 12.14C30.5732 12.3267 30.2046 12.4807 29.8499 12.602L29.3319 11.314ZM41.5785 19V9.298H47.7105V10.796H43.3425V13.274H47.2205V14.772H43.3425V19H41.5785ZM51.4735 19H49.7795V11.678H51.4735V19ZM51.6555 9.536C51.6555 9.85333 51.5528 10.1053 51.3475 10.292C51.1421 10.4787 50.8995 10.572 50.6195 10.572C50.3301 10.572 50.0828 10.4787 49.8775 10.292C49.6721 10.1053 49.5695 9.85333 49.5695 9.536C49.5695 9.20933 49.6721 8.95267 49.8775 8.766C50.0828 8.57933 50.3301 8.486 50.6195 8.486C50.8995 8.486 51.1421 8.57933 51.3475 8.766C51.5528 8.95267 51.6555 9.20933 51.6555 9.536ZM56.7426 19.14C56.2386 19.1307 55.8186 19.0747 55.4826 18.972C55.1559 18.8693 54.8946 18.7247 54.6986 18.538C54.5026 18.342 54.3626 18.104 54.2786 17.824C54.2039 17.5347 54.1666 17.208 54.1666 16.844V8.416L55.8606 8.136V16.522C55.8606 16.7273 55.8746 16.9 55.9026 17.04C55.9399 17.18 56.0006 17.3013 56.0846 17.404C56.1686 17.4973 56.2806 17.572 56.4206 17.628C56.5699 17.6747 56.7566 17.712 56.9806 17.74L56.7426 19.14ZM58.5049 15.374C58.5049 14.73 58.5982 14.1653 58.7849 13.68C58.9809 13.1947 59.2375 12.7933 59.5549 12.476C59.8722 12.1493 60.2362 11.9067 60.6469 11.748C61.0575 11.58 61.4775 11.496 61.9069 11.496C62.9149 11.496 63.6989 11.8087 64.2589 12.434C64.8282 13.0593 65.1129 13.9927 65.1129 15.234C65.1129 15.3273 65.1082 15.4347 65.0989 15.556C65.0989 15.668 65.0942 15.7707 65.0849 15.864H60.2549C60.3015 16.452 60.5069 16.9093 60.8709 17.236C61.2442 17.5533 61.7809 17.712 62.4809 17.712C62.8915 17.712 63.2649 17.6747 63.6009 17.6C63.9462 17.5253 64.2169 17.446 64.4129 17.362L64.6369 18.748C64.5435 18.7947 64.4129 18.846 64.2449 18.902C64.0862 18.9487 63.8995 18.9907 63.6849 19.028C63.4795 19.0747 63.2555 19.112 63.0129 19.14C62.7702 19.168 62.5229 19.182 62.2709 19.182C61.6269 19.182 61.0669 19.0887 60.5909 18.902C60.1149 18.706 59.7229 18.44 59.4149 18.104C59.1069 17.7587 58.8782 17.3573 58.7289 16.9C58.5795 16.4333 58.5049 15.9247 58.5049 15.374ZM63.4189 14.618C63.4189 14.3847 63.3862 14.1653 63.3209 13.96C63.2555 13.7453 63.1575 13.5633 63.0269 13.414C62.9055 13.2553 62.7515 13.134 62.5649 13.05C62.3875 12.9567 62.1729 12.91 61.9209 12.91C61.6595 12.91 61.4309 12.9613 61.2349 13.064C61.0389 13.1573 60.8709 13.2833 60.7309 13.442C60.6002 13.6007 60.4975 13.7827 60.4229 13.988C60.3482 14.1933 60.2969 14.4033 60.2689 14.618H63.4189ZM73.7325 17.684C74.3671 17.684 74.8291 17.5767 75.1185 17.362C75.4078 17.1473 75.5525 16.844 75.5525 16.452C75.5525 16.2187 75.5011 16.018 75.3985 15.85C75.3051 15.682 75.1651 15.5327 74.9785 15.402C74.8011 15.262 74.5818 15.136 74.3205 15.024C74.0591 14.9027 73.7605 14.786 73.4245 14.674C73.0885 14.5527 72.7618 14.422 72.4445 14.282C72.1365 14.1327 71.8611 13.9507 71.6185 13.736C71.3851 13.5213 71.1938 13.2647 71.0445 12.966C70.9045 12.6673 70.8345 12.308 70.8345 11.888C70.8345 11.0107 71.1378 10.3247 71.7445 9.83C72.3511 9.326 73.1771 9.074 74.2225 9.074C74.8291 9.074 75.3658 9.144 75.8325 9.284C76.3085 9.41467 76.6818 9.55933 76.9525 9.718L76.4065 11.146C76.0891 10.9687 75.7391 10.8333 75.3565 10.74C74.9831 10.6467 74.5958 10.6 74.1945 10.6C73.7185 10.6 73.3451 10.698 73.0745 10.894C72.8131 11.09 72.6825 11.3653 72.6825 11.72C72.6825 11.9347 72.7245 12.1213 72.8085 12.28C72.9018 12.4293 73.0278 12.5647 73.1865 12.686C73.3545 12.8073 73.5458 12.9193 73.7605 13.022C73.9845 13.1247 74.2271 13.2227 74.4885 13.316C74.9458 13.484 75.3518 13.6567 75.7065 13.834C76.0705 14.002 76.3738 14.2073 76.6165 14.45C76.8685 14.6833 77.0598 14.9633 77.1905 15.29C77.3211 15.6073 77.3865 15.9947 77.3865 16.452C77.3865 17.3293 77.0738 18.0107 76.4485 18.496C75.8325 18.972 74.9271 19.21 73.7325 19.21C73.3311 19.21 72.9625 19.182 72.6265 19.126C72.2998 19.0793 72.0058 19.0187 71.7445 18.944C71.4925 18.8693 71.2731 18.7947 71.0865 18.72C70.8998 18.636 70.7505 18.5613 70.6385 18.496L71.1565 17.054C71.4085 17.194 71.7491 17.334 72.1785 17.474C72.6078 17.614 73.1258 17.684 73.7325 17.684ZM79.011 15.374C79.011 14.73 79.1044 14.1653 79.291 13.68C79.487 13.1947 79.7437 12.7933 80.061 12.476C80.3784 12.1493 80.7424 11.9067 81.153 11.748C81.5637 11.58 81.9837 11.496 82.413 11.496C83.421 11.496 84.205 11.8087 84.765 12.434C85.3344 13.0593 85.619 13.9927 85.619 15.234C85.619 15.3273 85.6144 15.4347 85.605 15.556C85.605 15.668 85.6004 15.7707 85.591 15.864H80.761C80.8077 16.452 81.013 16.9093 81.377 17.236C81.7504 17.5533 82.287 17.712 82.987 17.712C83.3977 17.712 83.771 17.6747 84.107 17.6C84.4524 17.5253 84.723 17.446 84.919 17.362L85.143 18.748C85.0497 18.7947 84.919 18.846 84.751 18.902C84.5924 18.9487 84.4057 18.9907 84.191 19.028C83.9857 19.0747 83.7617 19.112 83.519 19.14C83.2764 19.168 83.029 19.182 82.777 19.182C82.133 19.182 81.573 19.0887 81.097 18.902C80.621 18.706 80.229 18.44 79.921 18.104C79.613 17.7587 79.3844 17.3573 79.235 16.9C79.0857 16.4333 79.011 15.9247 79.011 15.374ZM83.925 14.618C83.925 14.3847 83.8924 14.1653 83.827 13.96C83.7617 13.7453 83.6637 13.5633 83.533 13.414C83.4117 13.2553 83.2577 13.134 83.071 13.05C82.8937 12.9567 82.679 12.91 82.427 12.91C82.1657 12.91 81.937 12.9613 81.741 13.064C81.545 13.1573 81.377 13.2833 81.237 13.442C81.1064 13.6007 81.0037 13.7827 80.929 13.988C80.8544 14.1933 80.803 14.4033 80.775 14.618H83.925ZM87.9751 11.916C88.3017 11.8227 88.7264 11.734 89.2491 11.65C89.7717 11.566 90.3504 11.524 90.9851 11.524C91.5824 11.524 92.0817 11.608 92.4831 11.776C92.8844 11.9347 93.2017 12.1633 93.4351 12.462C93.6777 12.7513 93.8457 13.106 93.9391 13.526C94.0417 13.9367 94.0931 14.3893 94.0931 14.884V19H92.3991V15.15C92.3991 14.758 92.3711 14.4267 92.3151 14.156C92.2684 13.876 92.1844 13.652 92.0631 13.484C91.9511 13.3067 91.7924 13.1807 91.5871 13.106C91.3911 13.022 91.1484 12.98 90.8591 12.98C90.6444 12.98 90.4204 12.994 90.1871 13.022C89.9537 13.05 89.7811 13.0733 89.6691 13.092V19H87.9751V11.916ZM98.0545 15.318C98.0545 16.0647 98.2319 16.6527 98.5865 17.082C98.9412 17.502 99.4312 17.712 100.057 17.712C100.327 17.712 100.556 17.7027 100.743 17.684C100.939 17.656 101.097 17.628 101.219 17.6V13.4C101.069 13.2973 100.869 13.204 100.617 13.12C100.374 13.0267 100.113 12.98 99.8325 12.98C99.2165 12.98 98.7639 13.19 98.4745 13.61C98.1945 14.03 98.0545 14.5993 98.0545 15.318ZM102.913 18.776C102.577 18.8787 102.152 18.972 101.639 19.056C101.135 19.14 100.603 19.182 100.043 19.182C99.4639 19.182 98.9459 19.0933 98.4885 18.916C98.0312 18.7387 97.6392 18.4867 97.3125 18.16C96.9952 17.824 96.7479 17.4227 96.5705 16.956C96.4025 16.48 96.3185 15.948 96.3185 15.36C96.3185 14.7813 96.3885 14.2587 96.5285 13.792C96.6779 13.316 96.8925 12.91 97.1725 12.574C97.4525 12.238 97.7932 11.9813 98.1945 11.804C98.5959 11.6173 99.0579 11.524 99.5805 11.524C99.9352 11.524 100.248 11.566 100.519 11.65C100.789 11.734 101.023 11.8273 101.219 11.93V8.416L102.913 8.136V18.776ZM107.332 19H105.638V11.678H107.332V19ZM107.514 9.536C107.514 9.85333 107.412 10.1053 107.206 10.292C107.001 10.4787 106.758 10.572 106.478 10.572C106.189 10.572 105.942 10.4787 105.736 10.292C105.531 10.1053 105.428 9.85333 105.428 9.536C105.428 9.20933 105.531 8.95267 105.736 8.766C105.942 8.57933 106.189 8.486 106.478 8.486C106.758 8.486 107.001 8.57933 107.206 8.766C107.412 8.95267 107.514 9.20933 107.514 9.536ZM110.054 11.916C110.38 11.8227 110.805 11.734 111.328 11.65C111.85 11.566 112.429 11.524 113.064 11.524C113.661 11.524 114.16 11.608 114.562 11.776C114.963 11.9347 115.28 12.1633 115.514 12.462C115.756 12.7513 115.924 13.106 116.018 13.526C116.12 13.9367 116.172 14.3893 116.172 14.884V19H114.478V15.15C114.478 14.758 114.45 14.4267 114.394 14.156C114.347 13.876 114.263 13.652 114.142 13.484C114.03 13.3067 113.871 13.1807 113.666 13.106C113.47 13.022 113.227 12.98 112.938 12.98C112.723 12.98 112.499 12.994 112.266 13.022C112.032 13.05 111.86 13.0733 111.748 13.092V19H110.054V11.916ZM120.133 15.15C120.133 15.8687 120.287 16.396 120.595 16.732C120.912 17.0587 121.318 17.222 121.813 17.222C122.084 17.222 122.336 17.1847 122.569 17.11C122.812 17.0353 123.008 16.9467 123.157 16.844V13.05C123.036 13.022 122.886 12.9987 122.709 12.98C122.532 12.952 122.308 12.938 122.037 12.938C121.421 12.938 120.95 13.1433 120.623 13.554C120.296 13.9553 120.133 14.4873 120.133 15.15ZM124.851 18.258C124.851 19.4247 124.552 20.2787 123.955 20.82C123.367 21.3613 122.462 21.632 121.239 21.632C120.791 21.632 120.352 21.5947 119.923 21.52C119.503 21.4453 119.12 21.3473 118.775 21.226L119.083 19.784C119.372 19.9053 119.699 20.0033 120.063 20.078C120.436 20.1527 120.838 20.19 121.267 20.19C121.948 20.19 122.434 20.05 122.723 19.77C123.012 19.49 123.157 19.0747 123.157 18.524V18.244C122.989 18.328 122.765 18.412 122.485 18.496C122.214 18.58 121.902 18.622 121.547 18.622C121.08 18.622 120.651 18.5473 120.259 18.398C119.876 18.2487 119.545 18.0293 119.265 17.74C118.994 17.4507 118.78 17.0913 118.621 16.662C118.472 16.2233 118.397 15.7193 118.397 15.15C118.397 14.618 118.476 14.128 118.635 13.68C118.803 13.232 119.041 12.8493 119.349 12.532C119.666 12.2147 120.049 11.9673 120.497 11.79C120.945 11.6127 121.454 11.524 122.023 11.524C122.574 11.524 123.096 11.566 123.591 11.65C124.086 11.734 124.506 11.8227 124.851 11.916V18.258Z" fill="#277BC0"/>
</svg>
