<svg width="71" height="71" viewBox="0 0 71 71" fill="none" xmlns="http://www.w3.org/2000/svg">
<path d="M35.1562 70.3125C54.5725 70.3125 70.3125 54.5725 70.3125 35.1562C70.3125 15.74 54.5725 0 35.1562 0C15.74 0 0 15.74 0 35.1562C0 54.5725 15.74 70.3125 35.1562 70.3125Z" fill="#FFE36E"/>
<path d="M39.6751 51.9608C39.6751 52.8544 39.4101 53.7279 38.9137 54.4709C38.4172 55.2139 37.7116 55.7929 36.8861 56.1349C36.0605 56.4769 35.1521 56.5663 34.2757 56.392C33.3993 56.2177 32.5943 55.7874 31.9624 55.1555C31.3306 54.5237 30.9003 53.7187 30.726 52.8423C30.5516 51.9659 30.6411 51.0574 30.9831 50.2319C31.325 49.4063 31.9041 48.7007 32.6471 48.2043C33.3901 47.7078 34.2636 47.4429 35.1571 47.4429C36.3554 47.4429 37.5045 47.9189 38.3518 48.7662C39.1991 49.6134 39.6751 50.7626 39.6751 51.9608Z" fill="#FA9579"/>
<path d="M35.1571 41.4632C33.9589 41.4632 32.8097 40.9872 31.9624 40.1399C31.1152 39.2926 30.6392 38.1435 30.6392 36.9452V18.3515C30.6392 17.1532 31.1152 16.0041 31.9624 15.1568C32.8097 14.3095 33.9589 13.8335 35.1571 13.8335C36.3554 13.8335 37.5045 14.3095 38.3518 15.1568C39.1991 16.0041 39.6751 17.1532 39.6751 18.3515V36.9452C39.6751 38.1435 39.1991 39.2926 38.3518 40.1399C37.5045 40.9872 36.3554 41.4632 35.1571 41.4632Z" fill="#FA9579"/>
</svg>
