<svg width="180" height="120" viewBox="0 0 180 120" fill="none" xmlns="http://www.w3.org/2000/svg">
<g clip-path="url(#clip0_22_339)">
<rect width="180" height="120" rx="16" fill="#277BC0" fill-opacity="0.25"/>
<path d="M80.7759 58.548C80.5959 58.488 80.3439 58.428 80.0199 58.368C79.7079 58.296 79.3419 58.26 78.9219 58.26C78.6819 58.26 78.4239 58.284 78.1479 58.332C77.8839 58.38 77.6979 58.422 77.5899 58.458V66H75.4119V57.036C75.8319 56.88 76.3539 56.736 76.9779 56.604C77.6139 56.46 78.3159 56.388 79.0839 56.388C79.2279 56.388 79.3959 56.4 79.5879 56.424C79.7799 56.436 79.9719 56.46 80.1639 56.496C80.3559 56.52 80.5419 56.556 80.7219 56.604C80.9019 56.64 81.0459 56.676 81.1539 56.712L80.7759 58.548ZM82.1496 61.338C82.1496 60.51 82.2696 59.784 82.5096 59.16C82.7616 58.536 83.0916 58.02 83.4996 57.612C83.9076 57.192 84.3756 56.88 84.9036 56.676C85.4316 56.46 85.9716 56.352 86.5236 56.352C87.8196 56.352 88.8276 56.754 89.5476 57.558C90.2796 58.362 90.6456 59.562 90.6456 61.158C90.6456 61.278 90.6396 61.416 90.6276 61.572C90.6276 61.716 90.6216 61.848 90.6096 61.968H84.3996C84.4596 62.724 84.7236 63.312 85.1916 63.732C85.6716 64.14 86.3616 64.344 87.2616 64.344C87.7896 64.344 88.2696 64.296 88.7016 64.2C89.1456 64.104 89.4936 64.002 89.7456 63.894L90.0336 65.676C89.9136 65.736 89.7456 65.802 89.5296 65.874C89.3256 65.934 89.0856 65.988 88.8096 66.036C88.5456 66.096 88.2576 66.144 87.9456 66.18C87.6336 66.216 87.3156 66.234 86.9916 66.234C86.1636 66.234 85.4436 66.114 84.8316 65.874C84.2196 65.622 83.7156 65.28 83.3196 64.848C82.9236 64.404 82.6296 63.888 82.4376 63.3C82.2456 62.7 82.1496 62.046 82.1496 61.338ZM88.4676 60.366C88.4676 60.066 88.4256 59.784 88.3416 59.52C88.2576 59.244 88.1316 59.01 87.9636 58.818C87.8076 58.614 87.6096 58.458 87.3696 58.35C87.1416 58.23 86.8656 58.17 86.5416 58.17C86.2056 58.17 85.9116 58.236 85.6596 58.368C85.4076 58.488 85.1916 58.65 85.0116 58.854C84.8436 59.058 84.7116 59.292 84.6156 59.556C84.5196 59.82 84.4536 60.09 84.4176 60.366H88.4676ZM92.4328 61.302C92.4328 60.606 92.5408 59.958 92.7568 59.358C92.9728 58.746 93.2788 58.218 93.6748 57.774C94.0828 57.33 94.5748 56.982 95.1508 56.73C95.7268 56.478 96.3748 56.352 97.0948 56.352C97.9828 56.352 98.8228 56.514 99.6148 56.838L99.1468 58.62C98.8948 58.512 98.6068 58.422 98.2828 58.35C97.9708 58.278 97.6348 58.242 97.2748 58.242C96.4228 58.242 95.7748 58.512 95.3308 59.052C94.8868 59.58 94.6648 60.33 94.6648 61.302C94.6648 62.238 94.8748 62.982 95.2948 63.534C95.7148 64.074 96.4228 64.344 97.4188 64.344C97.7908 64.344 98.1568 64.308 98.5168 64.236C98.8768 64.164 99.1888 64.074 99.4528 63.966L99.7588 65.766C99.5188 65.886 99.1528 65.994 98.6608 66.09C98.1808 66.186 97.6828 66.234 97.1668 66.234C96.3628 66.234 95.6608 66.114 95.0608 65.874C94.4728 65.622 93.9808 65.28 93.5848 64.848C93.2008 64.404 92.9128 63.882 92.7208 63.282C92.5288 62.67 92.4328 62.01 92.4328 61.302ZM100.923 61.338C100.923 60.51 101.043 59.784 101.283 59.16C101.535 58.536 101.865 58.02 102.273 57.612C102.681 57.192 103.149 56.88 103.677 56.676C104.205 56.46 104.745 56.352 105.297 56.352C106.593 56.352 107.601 56.754 108.321 57.558C109.053 58.362 109.419 59.562 109.419 61.158C109.419 61.278 109.413 61.416 109.401 61.572C109.401 61.716 109.395 61.848 109.383 61.968H103.173C103.233 62.724 103.497 63.312 103.965 63.732C104.445 64.14 105.135 64.344 106.035 64.344C106.563 64.344 107.043 64.296 107.475 64.2C107.919 64.104 108.267 64.002 108.519 63.894L108.807 65.676C108.687 65.736 108.519 65.802 108.303 65.874C108.099 65.934 107.859 65.988 107.583 66.036C107.319 66.096 107.031 66.144 106.719 66.18C106.407 66.216 106.089 66.234 105.765 66.234C104.937 66.234 104.217 66.114 103.605 65.874C102.993 65.622 102.489 65.28 102.093 64.848C101.697 64.404 101.403 63.888 101.211 63.3C101.019 62.7 100.923 62.046 100.923 61.338ZM107.241 60.366C107.241 60.066 107.199 59.784 107.115 59.52C107.031 59.244 106.905 59.01 106.737 58.818C106.581 58.614 106.383 58.458 106.143 58.35C105.915 58.23 105.639 58.17 105.315 58.17C104.979 58.17 104.685 58.236 104.433 58.368C104.181 58.488 103.965 58.65 103.785 58.854C103.617 59.058 103.485 59.292 103.389 59.556C103.293 59.82 103.227 60.09 103.191 60.366H107.241ZM113.924 66H111.746V56.586H113.924V66ZM114.158 53.832C114.158 54.24 114.026 54.564 113.762 54.804C113.498 55.044 113.186 55.164 112.826 55.164C112.454 55.164 112.136 55.044 111.872 54.804C111.608 54.564 111.476 54.24 111.476 53.832C111.476 53.412 111.608 53.082 111.872 52.842C112.136 52.602 112.454 52.482 112.826 52.482C113.186 52.482 113.498 52.602 113.762 52.842C114.026 53.082 114.158 53.412 114.158 53.832ZM119.115 66C118.515 64.764 117.897 63.348 117.261 61.752C116.637 60.144 116.067 58.422 115.551 56.586H117.873C118.005 57.114 118.155 57.684 118.323 58.296C118.503 58.896 118.689 59.502 118.881 60.114C119.085 60.714 119.289 61.302 119.493 61.878C119.709 62.442 119.907 62.952 120.087 63.408C120.267 62.952 120.459 62.442 120.663 61.878C120.867 61.302 121.065 60.714 121.257 60.114C121.461 59.502 121.653 58.896 121.833 58.296C122.013 57.684 122.169 57.114 122.301 56.586H124.551C124.035 58.422 123.459 60.144 122.823 61.752C122.199 63.348 121.587 64.764 120.987 66H119.115ZM125.445 61.338C125.445 60.51 125.565 59.784 125.805 59.16C126.057 58.536 126.387 58.02 126.795 57.612C127.203 57.192 127.671 56.88 128.199 56.676C128.727 56.46 129.267 56.352 129.819 56.352C131.115 56.352 132.123 56.754 132.843 57.558C133.575 58.362 133.941 59.562 133.941 61.158C133.941 61.278 133.935 61.416 133.923 61.572C133.923 61.716 133.917 61.848 133.905 61.968H127.695C127.755 62.724 128.019 63.312 128.487 63.732C128.967 64.14 129.657 64.344 130.557 64.344C131.085 64.344 131.565 64.296 131.997 64.2C132.441 64.104 132.789 64.002 133.041 63.894L133.329 65.676C133.209 65.736 133.041 65.802 132.825 65.874C132.621 65.934 132.381 65.988 132.105 66.036C131.841 66.096 131.553 66.144 131.241 66.18C130.929 66.216 130.611 66.234 130.287 66.234C129.459 66.234 128.739 66.114 128.127 65.874C127.515 65.622 127.011 65.28 126.615 64.848C126.219 64.404 125.925 63.888 125.733 63.3C125.541 62.7 125.445 62.046 125.445 61.338ZM131.763 60.366C131.763 60.066 131.721 59.784 131.637 59.52C131.553 59.244 131.427 59.01 131.259 58.818C131.103 58.614 130.905 58.458 130.665 58.35C130.437 58.23 130.161 58.17 129.837 58.17C129.501 58.17 129.207 58.236 128.955 58.368C128.703 58.488 128.487 58.65 128.307 58.854C128.139 59.058 128.007 59.292 127.911 59.556C127.815 59.82 127.749 60.09 127.713 60.366H131.763ZM137.96 61.266C137.96 62.226 138.188 62.982 138.644 63.534C139.1 64.074 139.73 64.344 140.534 64.344C140.882 64.344 141.176 64.332 141.416 64.308C141.668 64.272 141.872 64.236 142.028 64.2V58.8C141.836 58.668 141.578 58.548 141.254 58.44C140.942 58.32 140.606 58.26 140.246 58.26C139.454 58.26 138.872 58.53 138.5 59.07C138.14 59.61 137.96 60.342 137.96 61.266ZM144.206 65.712C143.774 65.844 143.228 65.964 142.568 66.072C141.92 66.18 141.236 66.234 140.516 66.234C139.772 66.234 139.106 66.12 138.518 65.892C137.93 65.664 137.426 65.34 137.006 64.92C136.598 64.488 136.28 63.972 136.052 63.372C135.836 62.76 135.728 62.076 135.728 61.32C135.728 60.576 135.818 59.904 135.998 59.304C136.19 58.692 136.466 58.17 136.826 57.738C137.186 57.306 137.624 56.976 138.14 56.748C138.656 56.508 139.25 56.388 139.922 56.388C140.378 56.388 140.78 56.442 141.128 56.55C141.476 56.658 141.776 56.778 142.028 56.91V52.392L144.206 52.032V65.712Z" fill="#277BC0"/>
<path d="M55.3221 55.9123C54.6397 54.88 53.5873 54.2862 52.4362 54.2862H51.5647V51.6827C51.5647 49.4903 49.9615 47.7089 47.9801 47.7089H37.5221C36.9219 47.7089 36.3464 47.444 35.9189 46.9781L34.2746 45.1602C33.6004 44.4111 32.7042 44 31.7505 44H23.5782C21.605 44 20.0017 45.7814 20.0017 47.9829V71.1589C19.9771 72.045 20.2155 72.922 20.7006 73.6528C21.3912 74.6943 22.4518 75.2972 23.6193 75.2972H48.7694C50.3397 75.2972 51.7127 74.1735 52.1896 72.5018L55.8647 59.4476C56.2018 58.2326 56.0045 56.9446 55.3221 55.9123ZM21.309 47.9829C21.309 46.5944 22.3285 45.4616 23.5699 45.4616H31.7505C32.3507 45.4616 32.918 45.7266 33.3537 46.1924L34.9981 48.0104C35.6722 48.7594 36.5684 49.1705 37.5221 49.1705H47.9883C49.238 49.1705 50.2575 50.3033 50.2575 51.6827V54.2862H27.2368C25.6665 54.2862 24.2935 55.4099 23.8166 57.0725L21.3008 65.9884V47.9829H21.309ZM54.5985 59.0183L50.9235 72.0725C50.6275 73.1321 49.756 73.8355 48.7612 73.8355H23.6111C22.8711 73.8355 22.1969 73.4519 21.753 72.7941C21.3172 72.1273 21.1857 71.296 21.4076 70.5103L25.0663 57.511C25.3623 56.4513 26.2338 55.7479 27.2286 55.7479H52.428C53.1597 55.7479 53.8257 56.1224 54.2532 56.771C54.6972 57.4287 54.8205 58.2418 54.5985 59.0183Z" fill="#277BC0"/>
<path d="M89.2545 12.9387C86.6226 10.4491 83.0954 9.53654 79.5835 10.4427L76.9245 11.1289L75.5376 3.49481C74.3696 -2.93386 68.5291 -6.89495 62.4836 -5.33499L30.5757 2.89849C28.7445 3.37101 26.8474 3.04731 25.2948 2.01781L19.3094 -2.01806C16.8534 -3.68375 13.9001 -4.18358 10.9903 -3.43273L-13.9441 3.0013C-19.9645 4.55478 -23.9071 11.0403 -22.7343 17.4958L-10.3881 85.4522C-9.99132 88.0699 -8.79668 90.4536 -6.92735 92.2146C-4.26545 94.7245 -0.708309 95.6574 2.85375 94.7382L79.5884 74.9377C84.3797 73.7014 87.9703 69.3258 88.5346 64.0485L92.7934 22.8777C93.1747 19.0498 91.8865 15.4283 89.2545 12.9387ZM-18.7458 16.4666C-19.4855 12.3951 -16.9784 8.27095 -13.1906 7.29355L11.7689 0.853053C13.6001 0.380533 15.4721 0.710704 17.0498 1.73373L23.0352 5.7696C25.4912 7.43529 28.4444 7.93513 31.3543 7.18427L63.2874 -1.05568C67.1003 -2.03956 70.8142 0.479291 71.5491 4.524L72.936 12.158L2.69829 30.2821C-2.09293 31.5184 -5.68353 35.894 -6.25276 41.1445L-9.1791 69.2685L-18.7708 16.473L-18.7458 16.4666ZM88.7016 22.6156L84.4428 63.7864C84.1043 67.1266 81.82 69.8752 78.7847 70.6584L2.05003 90.4589C-0.207609 91.0415 -2.46896 90.4473 -4.17393 88.8682C-5.85868 87.2559 -6.70288 84.9219 -6.4441 82.4435L-2.20627 41.4464C-1.86772 38.1062 0.416564 35.3575 3.45184 34.5743L80.337 14.735C82.5696 14.1589 84.801 14.7328 86.4509 16.2981C88.1559 17.8771 88.9653 20.164 88.7016 22.6156Z" fill="#277BC0" fill-opacity="0.15"/>
</g>
<defs>
<clipPath id="clip0_22_339">
<rect width="180" height="120" rx="16" fill="white"/>
</clipPath>
</defs>
</svg>
