<svg width="346" height="346" viewBox="0 0 346 346" fill="none" xmlns="http://www.w3.org/2000/svg">
<path d="M173.5 298C242.812 298 299 241.812 299 172.5C299 103.188 242.812 47 173.5 47C104.188 47 48 103.188 48 172.5C48 241.812 104.188 298 173.5 298Z" fill="#FFB200" fill-opacity="0.2"/>
<path d="M173 346C268.545 346 346 268.545 346 173C346 77.4547 268.545 0 173 0C77.4547 0 0 77.4547 0 173C0 268.545 77.4547 346 173 346Z" fill="#FFB200" fill-opacity="0.1"/>
<path d="M173 234C206.689 234 234 206.689 234 173C234 139.311 206.689 112 173 112C139.311 112 112 139.311 112 173C112 206.689 139.311 234 173 234Z" fill="#FFB200" fill-opacity="0.6"/>
<path d="M174 204C191.121 204 205 190.121 205 173C205 155.879 191.121 142 174 142C156.879 142 143 155.879 143 173C143 190.121 156.879 204 174 204Z" fill="#FFB200" fill-opacity="0.6"/>
</svg>
