<svg width="180" height="120" viewBox="0 0 180 120" fill="none" xmlns="http://www.w3.org/2000/svg">
<g clip-path="url(#clip0_22_334)">
<rect width="180" height="120" rx="16" fill="#FFB200" fill-opacity="0.25"/>
<path d="M-36.8015 63.6144C-35.7802 66.334 -33.3854 68.0273 -30.7308 67.8922L18.4715 65.5583L30.803 98.9662C31.3007 100.285 32.49 101.15 33.7931 101.138C34.1585 101.151 34.5227 101.071 34.8449 100.946C35.7123 100.61 36.4092 99.9074 36.7707 98.9343L46.4346 73.4988L74.1221 81.9781C75.3554 82.3635 76.6498 82.3242 77.8642 81.8532C80.6647 80.7669 82.4023 77.6249 82.0295 74.3144L67.6519 -37.5513C67.4948 -38.8477 66.6761 -39.9492 65.5915 -40.3923C64.4735 -40.8532 63.2482 -40.5939 62.3542 -39.7227L-35.263 55.7681C-37.205 57.817 -37.8228 60.8948 -36.8015 63.6144ZM33.8013 88.3326L26.0376 67.2508L40.1854 71.5731L33.8013 88.3326ZM75.6138 75.0446L25.2213 59.6084L62.9517 -23.5736L75.6138 75.0446ZM55.8596 -23.8458L18.5576 58.3987L-30.5866 60.741L55.8596 -23.8458Z" fill="#FFB200" fill-opacity="0.15"/>
<path d="M36.0034 59.5049C36.0508 60.3898 36.5796 61.1345 37.3453 61.3886L51.5219 66.146L52.0428 76.9925C52.0665 77.4218 52.327 77.7985 52.698 77.9387C52.8006 77.9825 52.9111 78 53.0137 78C53.29 78 53.5505 77.8773 53.7399 77.6408L58.7522 71.4816L65.8563 76.9399C66.1721 77.1852 66.5431 77.3166 66.9298 77.3166C67.8218 77.3166 68.5953 76.6157 68.7848 75.6345L74.6812 42.2802C74.7522 41.8947 74.618 41.4917 74.3496 41.2464C74.0734 40.9923 73.7024 40.931 73.3709 41.0799L37.1401 57.446C36.406 57.814 35.956 58.62 36.0034 59.5049ZM53.8425 74.3027L53.5189 67.4602L57.1499 70.2463L53.8425 74.3027ZM66.8983 75.1351L53.9688 65.1998L72.1 45.7322L66.8983 75.1351ZM70.1109 44.8736L52.1849 64.1221L38.0241 59.3735L70.1109 44.8736Z" fill="#FFB200"/>
<path d="M97.2182 64.308C98.0342 64.308 98.6282 64.17 99.0002 63.894C99.3722 63.618 99.5582 63.228 99.5582 62.724C99.5582 62.424 99.4922 62.166 99.3602 61.95C99.2402 61.734 99.0602 61.542 98.8202 61.374C98.5922 61.194 98.3102 61.032 97.9742 60.888C97.6382 60.732 97.2542 60.582 96.8222 60.438C96.3902 60.282 95.9702 60.114 95.5622 59.934C95.1662 59.742 94.8122 59.508 94.5002 59.232C94.2002 58.956 93.9542 58.626 93.7622 58.242C93.5822 57.858 93.4922 57.396 93.4922 56.856C93.4922 55.728 93.8822 54.846 94.6622 54.21C95.4422 53.562 96.5042 53.238 97.8482 53.238C98.6282 53.238 99.3182 53.328 99.9182 53.508C100.53 53.676 101.01 53.862 101.358 54.066L100.656 55.902C100.248 55.674 99.7982 55.5 99.3062 55.38C98.8262 55.26 98.3282 55.2 97.8122 55.2C97.2002 55.2 96.7202 55.326 96.3722 55.578C96.0362 55.83 95.8682 56.184 95.8682 56.64C95.8682 56.916 95.9222 57.156 96.0302 57.36C96.1502 57.552 96.3122 57.726 96.5162 57.882C96.7322 58.038 96.9782 58.182 97.2542 58.314C97.5422 58.446 97.8542 58.572 98.1902 58.692C98.7782 58.908 99.3002 59.13 99.7562 59.358C100.224 59.574 100.614 59.838 100.926 60.15C101.25 60.45 101.496 60.81 101.664 61.23C101.832 61.638 101.916 62.136 101.916 62.724C101.916 63.852 101.514 64.728 100.71 65.352C99.9182 65.964 98.7542 66.27 97.2182 66.27C96.7022 66.27 96.2282 66.234 95.7962 66.162C95.3762 66.102 94.9982 66.024 94.6622 65.928C94.3382 65.832 94.0562 65.736 93.8162 65.64C93.5762 65.532 93.3842 65.436 93.2402 65.352L93.9062 63.498C94.2302 63.678 94.6682 63.858 95.2202 64.038C95.7722 64.218 96.4382 64.308 97.2182 64.308ZM103.285 61.338C103.285 60.51 103.405 59.784 103.645 59.16C103.897 58.536 104.227 58.02 104.635 57.612C105.043 57.192 105.511 56.88 106.039 56.676C106.567 56.46 107.107 56.352 107.659 56.352C108.955 56.352 109.963 56.754 110.683 57.558C111.415 58.362 111.781 59.562 111.781 61.158C111.781 61.278 111.775 61.416 111.763 61.572C111.763 61.716 111.757 61.848 111.745 61.968H105.535C105.595 62.724 105.859 63.312 106.327 63.732C106.807 64.14 107.497 64.344 108.397 64.344C108.925 64.344 109.405 64.296 109.837 64.2C110.281 64.104 110.629 64.002 110.881 63.894L111.169 65.676C111.049 65.736 110.881 65.802 110.665 65.874C110.461 65.934 110.221 65.988 109.945 66.036C109.681 66.096 109.393 66.144 109.081 66.18C108.769 66.216 108.451 66.234 108.127 66.234C107.299 66.234 106.579 66.114 105.967 65.874C105.355 65.622 104.851 65.28 104.455 64.848C104.059 64.404 103.765 63.888 103.573 63.3C103.381 62.7 103.285 62.046 103.285 61.338ZM109.603 60.366C109.603 60.066 109.561 59.784 109.477 59.52C109.393 59.244 109.267 59.01 109.099 58.818C108.943 58.614 108.745 58.458 108.505 58.35C108.277 58.23 108.001 58.17 107.677 58.17C107.341 58.17 107.047 58.236 106.795 58.368C106.543 58.488 106.327 58.65 106.147 58.854C105.979 59.058 105.847 59.292 105.751 59.556C105.655 59.82 105.589 60.09 105.553 60.366H109.603ZM114.09 56.892C114.51 56.772 115.056 56.658 115.728 56.55C116.4 56.442 117.144 56.388 117.96 56.388C118.728 56.388 119.37 56.496 119.886 56.712C120.402 56.916 120.81 57.21 121.11 57.594C121.422 57.966 121.638 58.422 121.758 58.962C121.89 59.49 121.956 60.072 121.956 60.708V66H119.778V61.05C119.778 60.546 119.742 60.12 119.67 59.772C119.61 59.412 119.502 59.124 119.346 58.908C119.202 58.68 118.998 58.518 118.734 58.422C118.482 58.314 118.17 58.26 117.798 58.26C117.522 58.26 117.234 58.278 116.934 58.314C116.634 58.35 116.412 58.38 116.268 58.404V66H114.09V56.892ZM126.329 61.266C126.329 62.226 126.557 62.982 127.013 63.534C127.469 64.074 128.099 64.344 128.903 64.344C129.251 64.344 129.545 64.332 129.785 64.308C130.037 64.272 130.241 64.236 130.397 64.2V58.8C130.205 58.668 129.947 58.548 129.623 58.44C129.311 58.32 128.975 58.26 128.615 58.26C127.823 58.26 127.241 58.53 126.869 59.07C126.509 59.61 126.329 60.342 126.329 61.266ZM132.575 65.712C132.143 65.844 131.597 65.964 130.937 66.072C130.289 66.18 129.605 66.234 128.885 66.234C128.141 66.234 127.475 66.12 126.887 65.892C126.299 65.664 125.795 65.34 125.375 64.92C124.967 64.488 124.649 63.972 124.421 63.372C124.205 62.76 124.097 62.076 124.097 61.32C124.097 60.576 124.187 59.904 124.367 59.304C124.559 58.692 124.835 58.17 125.195 57.738C125.555 57.306 125.993 56.976 126.509 56.748C127.025 56.508 127.619 56.388 128.291 56.388C128.747 56.388 129.149 56.442 129.497 56.55C129.845 56.658 130.145 56.778 130.397 56.91V52.392L132.575 52.032V65.712Z" fill="#FFB200"/>
</g>
<defs>
<clipPath id="clip0_22_334">
<rect width="180" height="120" rx="16" fill="white"/>
</clipPath>
</defs>
</svg>
