<svg width="134" height="134" viewBox="0 0 134 134" fill="none" xmlns="http://www.w3.org/2000/svg">
<g clip-path="url(#clip0_55_2611)">
<path d="M132.037 67C132.037 102.628 103.389 131.563 67.8715 132.032C67.0717 132.041 65.9654 132.041 64.5006 131.99C29.7417 130.676 1.96289 102.081 1.96289 67C1.96289 31.8381 29.8673 3.19559 64.7361 2.00215C65.4873 1.97598 66.2436 1.96289 67 1.96289C67.28 1.96289 66.9869 1.96289 67.8715 1.96812C103.389 2.4366 132.037 31.3722 132.037 67Z" fill="#BBEC6C"/>
<path d="M132.037 67C132.037 102.628 103.389 131.563 67.8714 132.032C67.0716 132.041 65.9653 132.041 64.5005 131.99C98.3826 129.731 126.148 101.442 126.148 67C126.148 32.5186 98.6679 4.20582 64.736 2.00215C65.4872 1.97598 66.2435 1.96289 66.9999 1.96289C67.2799 1.96289 66.9868 1.96289 67.8714 1.96812C103.389 2.4366 132.037 31.3722 132.037 67Z" fill="#A2E62E"/>
<path d="M5.88721 67.6011C5.88721 52.635 11.7152 38.5647 22.298 27.9821C32.8809 17.3995 46.9511 11.5713 61.917 11.5713C76.8829 11.5713 90.9534 17.3992 101.536 27.9821C112.119 38.565 117.947 52.6352 117.947 67.6011C117.947 80.3842 113.528 93.9352 105.504 103.857C97.6003 113.631 86.5317 120.534 74.3369 123.295C70.9926 124.052 67.6678 120.908 66.9106 117.564C66.1529 114.219 68.2506 110.895 71.5948 110.137C81.079 107.99 89.6924 102.615 95.8486 95.0025C102.182 87.1711 105.529 77.6958 105.529 67.6013C105.529 43.5531 85.9648 23.9888 61.9167 23.9888C37.8687 23.9888 18.3042 43.5531 18.3042 67.6011C18.3042 77.7139 21.6626 87.2025 28.0163 95.041C34.1931 102.661 42.8309 108.031 52.3386 110.16C55.6844 110.909 57.7905 114.23 57.0404 117.575C56.2914 120.921 52.9712 123.026 49.6254 122.277C37.4002 119.539 26.3005 112.643 18.3701 102.86C10.3202 92.9289 5.88721 80.4072 5.88721 67.6011Z" fill="#A2E62E"/>
<path d="M122.396 67.6022C122.396 80.3845 117.978 92.8894 109.953 102.811C102.05 112.584 90.9815 119.488 78.7854 122.249C78.2044 122.38 77.6286 122.424 77.0633 122.393C77.0554 122.39 77.045 122.39 77.0371 122.39C76.1551 122.338 75.3045 122.095 74.5429 121.694C73.8834 121.354 73.2893 120.893 72.792 120.336C72.7894 120.333 72.7894 120.333 72.7894 120.333H72.7868C72.1063 119.574 71.6012 118.632 71.3604 117.564C70.6014 114.22 72.7004 110.896 76.0452 110.137C85.5299 107.991 94.143 102.615 100.299 95.0015C106.632 87.1709 109.98 77.6967 109.98 67.6022C109.98 43.5528 90.4135 23.9894 66.3668 23.9894C42.3175 23.9894 22.754 43.5528 22.754 67.6022C22.754 77.715 26.1119 87.2023 32.4664 95.0408C38.643 102.662 47.2797 108.032 56.7879 110.16C60.1327 110.909 62.2395 114.23 61.491 117.575C60.7399 120.922 57.4213 123.026 54.0739 122.278C41.849 119.54 30.7495 112.644 22.8194 102.861C14.769 92.9287 10.3354 80.4081 10.3354 67.6022C10.3354 52.6345 16.1639 38.5645 26.7478 27.9832C36.9522 17.7762 50.4046 11.9922 64.773 11.5944C65.3016 11.5787 65.8329 11.5708 66.3668 11.5708C81.3319 11.5708 95.4019 17.3993 105.986 27.9832C116.567 38.5645 122.396 52.6345 122.396 67.6022Z" fill="#4FC123"/>
<path d="M56.7878 110.161C47.2804 108.032 38.6423 102.662 32.4655 95.0417C26.112 87.2032 22.7534 77.7146 22.7534 67.6018C22.7534 44.5619 40.7128 25.6404 63.3672 24.0942C62.3758 24.0267 61.3766 23.9893 60.3684 23.9893C36.3204 23.9893 16.7559 43.5538 16.7559 67.6018C16.7559 77.7146 20.1142 87.2032 26.468 95.0417C32.6448 102.662 41.2826 108.032 50.7903 110.161C54.1361 110.91 56.2421 114.231 55.4921 117.576C55.0621 119.496 53.7841 121.007 52.141 121.805C52.7825 121.973 53.4268 122.132 54.0749 122.277C57.4207 123.027 60.7408 120.922 61.4899 117.576C62.2397 114.231 60.1337 110.91 56.7878 110.161Z" fill="#47A920"/>
<path d="M105.985 27.9832C95.4016 17.3993 81.3316 11.5708 66.3665 11.5708C65.8326 11.5708 65.3013 11.5787 64.7726 11.5944C64.3015 11.6074 63.833 11.6284 63.3672 11.6519C77.2069 12.3769 90.1148 18.1085 99.9869 27.9832C110.571 38.5645 116.399 52.6345 116.399 67.6022C116.399 80.3845 111.979 92.8894 103.955 102.811C97.0855 111.306 87.4689 117.618 77.0975 120.938C74.4656 121.272 72.8739 120.383 72.7917 120.336C73.4295 121.05 74.2264 121.603 75.1116 121.957C75.6562 122.16 76.2335 122.344 77.0629 122.393C77.6282 122.424 78.204 122.38 78.785 122.249C90.9811 119.488 102.049 112.584 109.953 102.811C117.977 92.8894 122.395 80.3845 122.395 67.6022C122.395 52.6345 116.567 38.5645 105.985 27.9832Z" fill="#47A920"/>
<path d="M114.376 19.6237C101.722 6.96931 84.8963 0 67 0C50.344 0 34.3775 6.15222 22.0414 17.3229C21.238 18.0505 21.1762 19.2918 21.904 20.0956C22.6319 20.899 23.8732 20.9605 24.6767 20.233C36.2891 9.71709 51.3199 3.92578 67 3.92578C83.8479 3.92578 99.6874 10.4865 111.6 22.3997C123.513 34.3129 130.074 50.1521 130.074 67C130.074 83.8479 123.513 99.6874 111.6 111.6C99.6871 123.513 83.8479 130.074 67 130.074C50.1521 130.074 34.3126 123.513 22.3997 111.6C10.4868 99.6871 3.92578 83.8479 3.92578 67C3.92578 52.2747 9.10781 37.9453 18.5171 26.6516C19.2112 25.8186 19.0987 24.5811 18.2656 23.8871C17.4323 23.1927 16.1946 23.3058 15.5011 24.1386C5.50499 36.1366 0 51.3581 0 67C0 84.8963 6.96931 101.722 19.6237 114.376C32.278 127.031 49.1037 134 67 134C84.8963 134 101.722 127.031 114.376 114.376C127.031 101.722 134 84.8963 134 67C134 49.1037 127.031 32.2783 114.376 19.6237Z" fill="black"/>
<path d="M57.7046 119.805C56.747 120.412 55.6103 120.609 54.5035 120.362C42.7084 117.72 31.9975 111.066 24.3444 101.624C16.5771 92.0417 12.2998 79.9589 12.2998 67.6016C12.2998 53.1597 17.9236 39.5822 28.1354 29.3705C38.3476 19.1585 51.9248 13.5347 66.3667 13.5347C80.8083 13.5347 94.3858 19.1585 104.598 29.3705C112.945 37.718 118.232 48.2561 119.885 59.8458C120.038 60.9191 121.033 61.6634 122.106 61.5116C123.179 61.3585 123.925 60.3643 123.772 59.2912C121.997 46.8538 116.326 35.5473 107.374 26.5942C96.4199 15.641 81.8568 9.60889 66.3664 9.60889C50.8761 9.60889 36.3128 15.6412 25.3593 26.5942C14.4061 37.5479 8.37402 52.1112 8.37402 67.6016C8.37402 80.8561 12.9627 93.8169 21.2948 104.096C29.5023 114.222 40.9915 121.359 53.6456 124.192C54.2447 124.327 54.8482 124.393 55.4475 124.393C56.9791 124.393 58.4824 123.96 59.8073 123.12C61.6505 121.951 62.9285 120.134 63.4051 118.005C63.8827 115.876 63.5017 113.688 62.3326 111.844C61.1635 110 59.3469 108.722 57.2168 108.245C48.1385 106.212 39.8902 101.084 33.9905 93.8054C27.9234 86.3202 24.7165 77.259 24.7165 67.6016C24.7165 44.6358 43.4006 25.9517 66.3664 25.9517C89.332 25.9517 108.016 44.6358 108.016 67.6016C108.016 77.2417 104.819 86.2901 98.7722 93.7685C92.8922 101.039 84.6666 106.173 75.6111 108.223C73.4823 108.705 71.6686 109.987 70.504 111.833C69.3393 113.68 68.9635 115.869 69.4458 117.997C70.4409 122.392 74.8252 125.157 79.22 124.163C91.8429 121.305 103.3 114.16 111.48 104.045C119.564 94.0488 124.135 81.4486 124.351 68.5663C124.369 67.4822 123.506 66.5887 122.422 66.5707C122.41 66.5704 122.399 66.5704 122.388 66.5704C121.319 66.5704 120.444 67.4275 120.426 68.5003C120.224 80.5111 115.963 92.2576 108.427 101.576C100.8 111.008 90.1195 117.67 78.3532 120.334C76.0689 120.851 73.7919 119.414 73.2748 117.13C73.0243 116.024 73.2196 114.887 73.8246 113.928C74.43 112.969 75.3722 112.303 76.4785 112.052C86.3908 109.808 95.3926 104.191 101.825 96.237C108.444 88.0525 111.942 78.1504 111.942 67.6016C111.942 42.4711 91.4975 22.0259 66.367 22.0259C41.2365 22.0259 20.7913 42.4711 20.7913 67.6016C20.7913 78.1695 24.3009 88.0855 30.9412 96.2773C37.395 104.24 46.4219 109.85 56.3594 112.075C57.4659 112.323 58.4099 112.988 59.0174 113.946C59.6246 114.904 59.8227 116.04 59.5746 117.147C59.3265 118.253 58.6628 119.197 57.7046 119.805Z" fill="black"/>
<path d="M95.5857 55.4697C94.5867 55.0505 93.4354 55.5205 93.0162 56.5203L84.6857 76.3696C84.2661 77.3691 84.7364 78.5196 85.7362 78.9391C85.9843 79.043 86.2419 79.0925 86.4949 79.0925C87.2618 79.0925 87.9904 78.64 88.3058 77.8886L96.636 58.0393C97.0555 57.0398 96.5852 55.8895 95.5857 55.4697Z" fill="black"/>
<path d="M78.587 72.6841V63.1518C78.587 58.7829 75.0326 55.2285 70.6637 55.2285C66.2951 55.2285 62.7407 58.7829 62.7407 63.1518V72.6841C62.7407 77.0527 66.2951 80.6071 70.6637 80.6071C75.0326 80.6071 78.587 77.0527 78.587 72.6841ZM66.6665 72.6841V63.1518C66.6665 60.9476 68.4598 59.1543 70.6637 59.1543C72.8677 59.1543 74.6612 60.9479 74.6612 63.1518V72.6841C74.6612 74.8883 72.8677 76.6813 70.6637 76.6813C68.4598 76.6813 66.6665 74.8883 66.6665 72.6841Z" fill="black"/>
<path d="M44.5044 63.1518V72.6841C44.5044 77.0527 48.0588 80.6071 52.4277 80.6071C56.7963 80.6071 60.3507 77.0527 60.3507 72.6841V63.1518C60.3507 58.7829 56.7963 55.2285 52.4277 55.2285C48.0588 55.2283 44.5044 58.7829 44.5044 63.1518ZM56.4252 63.1518V72.6841C56.4252 74.8883 54.6319 76.6813 52.4279 76.6813C50.224 76.6813 48.4304 74.888 48.4304 72.6841V63.1518C48.4304 60.9476 50.224 59.1543 52.4279 59.1543C54.6319 59.1543 56.4252 60.9476 56.4252 63.1518Z" fill="black"/>
<path d="M39.9976 80.4867C41.0819 80.4867 41.9605 79.6081 41.9605 78.5238V57.6392C41.9605 56.5549 41.0819 55.6763 39.9976 55.6763H35.5337C34.4494 55.6763 33.5708 56.5549 33.5708 57.6392C33.5708 58.7235 34.4494 59.6021 35.5337 59.6021H38.0347V78.5238C38.0347 79.6081 38.9135 80.4867 39.9976 80.4867Z" fill="black"/>
<path d="M85.0742 55.356C83.8133 55.356 82.791 56.3782 82.791 57.6392C82.791 58.9002 83.8133 59.9227 85.0742 59.9227C86.3352 59.9227 87.3575 58.9004 87.3575 57.6392C87.3575 56.378 86.3355 55.356 85.0742 55.356Z" fill="black"/>
<path d="M93.8994 76.2823C93.8994 77.5432 94.9217 78.5658 96.1829 78.5658C97.4439 78.5658 98.4661 77.5435 98.4661 76.2823C98.4661 75.0213 97.4439 73.999 96.1829 73.999C94.9217 73.9988 93.8994 75.021 93.8994 76.2823Z" fill="black"/>
</g>
<defs>
<clipPath id="clip0_55_2611">
<rect width="134" height="134" fill="white"/>
</clipPath>
</defs>
</svg>
