<svg width="45" height="36" viewBox="0 0 45 36" fill="none" xmlns="http://www.w3.org/2000/svg">
<path d="M2.96114 0H13.6453C14.345 0 14.9913 0.373767 15.3405 0.980113L17.0989 3.38232C17.4481 3.98866 18.0945 4.36243 18.7942 4.36243H44.8184V31.7887C44.8184 33.2291 43.6506 34.3969 42.2102 34.3969H2.7527C1.31229 34.3969 0.144531 33.2291 0.144531 31.7887V7.40484C0.144531 5.38881 0.456004 3.3848 1.06798 1.46387C1.29216 0.601767 2.07041 0 2.96114 0Z" fill="#F6C358"/>
<path d="M38.5493 3.91406H4.20996V18.42H38.5493V3.91406Z" fill="#EBF0F3"/>
<path d="M42.8624 1.3042H32.0957C31.33 1.3042 30.6347 1.75095 30.3165 2.44735L28.4741 6.47951C28.1559 7.17591 27.4606 7.62266 26.695 7.62266H0.144531V32.4408C0.144531 33.8812 1.31229 35.0489 2.7527 35.0489H42.2103C43.6507 35.0489 44.8185 33.8812 44.8185 32.4408V3.26032C44.8185 2.18004 43.9426 1.3042 42.8624 1.3042Z" fill="#FCD462"/>
</svg>
