<svg width="46" height="45" viewBox="0 0 46 45" fill="none" xmlns="http://www.w3.org/2000/svg">
<path d="M45.3767 9.49537V31.7451C45.3767 34.6323 42.4424 36.9803 38.8327 36.9803C37.119 36.9803 35.5563 36.4507 34.3897 35.586C33.0983 34.6288 32.2886 33.2616 32.2886 31.7451C32.2886 30.2286 33.0983 28.8614 34.3897 27.9042C35.5563 27.0395 37.119 26.5099 38.8327 26.5099C40.3116 26.5099 41.6623 26.9191 42.7591 27.5831V16.7156L34.3897 20.3026L27.0534 23.4464V39.5979C27.0534 42.4852 24.1191 44.8332 20.5094 44.8332C16.8997 44.8332 13.9653 42.4852 13.9653 39.5979C13.9653 36.7107 16.8997 34.3627 20.5094 34.3627C21.9883 34.3627 23.339 34.7719 24.4358 35.4359V17.3482C24.4358 16.8238 24.7473 16.3509 25.2281 16.1459L43.5513 8.29301C43.958 8.11589 44.423 8.16126 44.7886 8.40295C45.1568 8.64552 45.3767 9.05561 45.3767 9.49537Z" fill="#FF8FB8"/>
<path d="M21.6436 14.5563C21.6436 17.6188 18.9474 20.4197 18.6333 20.7076C18.1359 21.2311 17.2985 21.2311 16.8011 20.7076C16.2775 20.2102 16.2775 19.3726 16.8011 18.8753C17.403 18.247 19.0259 16.2576 19.0259 14.5563C19.0259 11.7554 16.1466 7.67196 13.7907 4.87111V23.7179C13.7907 23.9273 13.7645 24.1891 13.7383 24.4508C13.4766 25.8644 12.5343 27.0946 11.1731 27.906C10.1 28.5604 8.71253 28.9532 7.24667 28.9532C3.63436 28.9532 0.702637 26.5972 0.702637 23.7179C0.702637 20.8385 3.63436 18.4827 7.24667 18.4827C8.73871 18.4827 10.0738 18.9014 11.1731 19.5558V1.46821C11.1731 0.94469 11.4872 0.473519 11.9846 0.264023C12.4819 0.0545265 13.0577 0.185582 13.398 0.55196C14.262 1.3896 21.6436 8.95459 21.6436 14.5563Z" fill="#979FEF"/>
<path d="M21.6434 14.5563C21.6434 17.6188 18.9472 20.4197 18.6331 20.7076C18.1357 21.2311 17.2982 21.2311 16.8008 20.7076C16.2773 20.2102 16.2773 19.3726 16.8008 18.8753C17.4028 18.247 19.0257 16.2576 19.0257 14.5563C19.0257 11.7554 16.1464 7.67196 13.7905 4.87111V23.7179C13.7905 23.9273 13.7643 24.1891 13.738 24.4508C13.4764 25.8644 12.534 27.0946 11.1729 27.906V1.46821C11.1729 0.94469 11.487 0.473519 11.9843 0.264023C12.4817 0.0545265 13.0574 0.185582 13.3977 0.55196C14.2617 1.3896 21.6434 8.95459 21.6434 14.5563Z" fill="#6B77E8"/>
</svg>
