<svg width="46" height="43" viewBox="0 0 46 43" fill="none" xmlns="http://www.w3.org/2000/svg">
<path d="M37.2772 0.469298C27.5608 -0.120625 17.8444 -0.120625 8.12795 0.469298C4.23085 0.70593 1.1144 3.77918 0.791565 7.67018C0.223804 14.5132 0.223804 21.3562 0.79139 28.1993C1.11475 32.0971 4.24158 35.166 8.14575 35.4015C9.69547 35.495 11.2452 35.5735 12.7949 35.6373C13.6624 35.673 14.484 36.0362 15.098 36.6501L20.5101 42.0622C21.721 43.2731 23.6843 43.2731 24.8953 42.0622L30.3074 36.6501C30.9213 36.0362 31.743 35.6731 32.6105 35.6373C34.1602 35.5735 35.7099 35.4951 37.2596 35.4015C41.1636 35.166 44.2906 32.0971 44.6139 28.1993C45.1816 21.3563 45.1815 14.5133 44.6137 7.67027C44.2907 3.77918 41.1743 0.70593 37.2772 0.469298Z" fill="#9DC6FB"/>
<path d="M23.1579 42.9362C22.2203 43.0756 21.2316 42.7843 20.5098 42.0624L15.0977 36.6504C14.4838 36.0364 13.6622 35.6733 12.7948 35.6373C11.2452 35.5744 9.69557 35.4953 8.14585 35.4018C4.24116 35.1663 1.11494 32.0976 0.791317 28.2001C0.223207 21.357 0.223207 14.5139 0.791317 7.67084C1.09958 3.954 3.95715 0.983268 7.60924 0.518555C5.06815 1.65565 3.21017 4.54366 2.9765 7.67084C2.46598 14.5139 2.46598 21.357 2.9765 28.2001C3.26775 32.0976 6.083 35.1663 9.59758 35.4018C10.9926 35.4953 13.7359 35.5744 15.131 35.6373C15.9121 35.6733 16.652 36.0364 17.2047 36.6504L22.0766 42.0624C22.517 42.5514 22.8478 42.8427 23.1579 42.9362Z" fill="#80B4FB"/>
<path d="M25.2842 18.0223L35.6991 24.0354C37.0517 24.8162 38.7422 23.8402 38.7422 22.2784V13.7661C38.7422 12.2044 37.0516 11.2284 35.6991 12.0092L25.2842 18.0223Z" fill="#21386B"/>
<path d="M28.3368 26.6644C23.3058 26.9677 18.2747 26.9677 13.2438 26.6644C11.3472 26.5501 9.82265 25.0598 9.65957 23.1668C9.36413 19.7375 9.36413 16.3081 9.65957 12.8789C9.82265 10.9859 11.3472 9.4956 13.2438 9.38121C18.2747 9.07801 23.3058 9.07801 28.3368 9.38121C30.2333 9.49552 31.7579 10.9858 31.921 12.8789C32.2164 16.3082 32.2164 19.7375 31.921 23.1668C31.7579 25.0598 30.2333 26.5501 28.3368 26.6644Z" fill="#26457D"/>
<path d="M31.9215 23.168C31.757 25.0592 30.2325 26.5486 28.3368 26.6637C23.3059 26.9666 18.2749 26.9666 13.2439 26.6637C11.3482 26.5486 9.82376 25.0592 9.66016 23.168C10.3442 23.4772 11.1909 23.6713 12.115 23.7037C17.8982 23.9024 23.6825 23.9024 29.4658 23.7037C30.3898 23.6714 31.2375 23.4772 31.9215 23.168Z" fill="#21386B"/>
<path d="M24.5206 16.7172L20.5039 14.398C19.4991 13.8179 18.2432 14.5431 18.2432 15.7033V20.3414C18.2432 21.5016 19.4992 22.2268 20.5039 21.6466L24.5206 19.3275C25.5255 18.7476 25.5255 17.2973 24.5206 16.7172Z" fill="#EE596B"/>
</svg>
