<svg width="49" height="43" viewBox="0 0 49 43" fill="none" xmlns="http://www.w3.org/2000/svg">
<path d="M45.1173 3.80315C47.1126 4.05951 48.5356 5.86572 48.318 7.86561L45.4867 32.9172C45.2689 34.911 43.476 36.3508 41.4823 36.133C41.4423 36.1286 41.4025 36.1235 41.3627 36.1179H41.1781V13.159C41.1781 11.1194 39.5246 9.46588 37.485 9.46588H6.70898L7.38606 3.31068C7.64278 1.28157 9.47632 -0.168954 11.51 0.048413L45.1173 3.80315Z" fill="#00ACEA"/>
<path d="M41.1781 36.1178V38.3337C41.1781 40.3733 39.5246 42.0268 37.485 42.0268H3.69312C1.65352 42.0268 0 40.3733 0 38.3337V33.1633L10.156 25.7771C11.7663 24.5553 14.0196 24.6589 15.511 26.0233L22.2817 31.9322C23.7009 33.1357 25.7263 33.3087 27.329 32.3631L41.1781 24.2383V36.1178Z" fill="#00CEB4"/>
<path d="M41.1781 13.1594V24.2388L27.329 32.3636C25.7263 33.3092 23.7009 33.1362 22.2817 31.9327L15.511 26.0238C14.0196 24.6595 11.7663 24.5558 10.156 25.7775L0 33.1638V13.1594C0 11.1198 1.65352 9.46631 3.69312 9.46631H37.485C39.5247 9.46643 41.1781 11.1198 41.1781 13.1594Z" fill="#00EFD1"/>
<path d="M24.6205 23.4998C26.7961 23.4998 28.5599 21.7361 28.5599 19.5604C28.5599 17.3848 26.7961 15.6211 24.6205 15.6211C22.4449 15.6211 20.6812 17.3848 20.6812 19.5604C20.6812 21.7361 22.4449 23.4998 24.6205 23.4998Z" fill="#D4E1F4"/>
</svg>
